<svg width="130" height="130" viewBox="0 0 130 130" fill="none" xmlns="http://www.w3.org/2000/svg">
<g filter="url(#filter0_f_1_2103)">
<circle cx="86.346" cy="47.5804" r="11.511" fill="#A2C6D2" fill-opacity="0.5"/>
</g>
<g filter="url(#filter1_f_1_2103)">
<ellipse cx="72.4436" cy="36.5237" rx="19.718" ry="11.511" fill="#86A8E6" fill-opacity="0.4"/>
</g>
<g filter="url(#filter2_d_1_2103)">
<rect x="28.8701" y="25.3174" width="71.6953" height="71.6953" rx="35.8476" fill="url(#paint0_linear_1_2103)"/>
<rect x="29.4386" y="25.8858" width="70.5584" height="70.5584" rx="35.2792" stroke="url(#paint1_linear_1_2103)" stroke-width="1.13689"/>
</g>
<rect x="34.3418" y="30.7881" width="60.8237" height="60.8237" rx="30.4119" fill="url(#paint2_linear_1_2103)"/>
<g style="mix-blend-mode:overlay">
<path d="M65.3545 36.4092C73.2446 36.6093 80.2163 40.5014 84.6104 46.4209H99.4277V46.7764H84.8691C87.6992 50.7335 89.393 55.5577 89.4736 60.7744H99.4277V61.1299H89.4785C89.4785 61.1413 89.4785 61.1527 89.4785 61.1641L89.4697 61.8037C89.3446 66.7391 87.7734 71.3149 85.167 75.126H99.4277V75.4814H84.9199C80.4332 81.8024 73.0563 85.9276 64.7148 85.9277L64.0762 85.9189C55.9975 85.7143 48.8808 81.6404 44.5088 75.4814H30.0059V75.126H44.2598C41.6536 71.3152 40.085 66.7387 39.96 61.8037L39.9521 61.1641C39.9521 61.1527 39.9521 61.1413 39.9521 61.1299H30.0059V60.7744H39.957C40.0376 55.5579 41.7297 50.7333 44.5596 46.7764H30.0059V46.4209H44.8184C49.3306 40.3418 56.5625 36.4014 64.7148 36.4014L65.3545 36.4092ZM44.9473 75.4814C49.3828 81.5953 56.5839 85.5722 64.7148 85.5723C72.8457 85.5721 80.0467 81.5953 84.4824 75.4814H44.9473ZM40.3076 61.1299C40.3076 61.1413 40.3076 61.1527 40.3076 61.1641C40.3076 66.3565 41.9302 71.1695 44.6943 75.126H84.7354C87.4996 71.1695 89.123 66.3565 89.123 61.1641C89.123 61.1527 89.1231 61.1413 89.123 61.1299H40.3076ZM44.999 46.7764C42.121 50.7133 40.3945 55.5436 40.3125 60.7744H89.1172C89.0352 55.5437 87.3088 50.7133 84.4307 46.7764H44.999ZM64.7148 36.7568C56.7747 36.7569 49.7209 40.5496 45.2637 46.4209H84.166C79.7086 40.5497 72.655 36.757 64.7148 36.7568Z" fill="white" fill-opacity="0.4"/>
</g>
<g filter="url(#filter3_f_1_2103)">
<circle cx="83.8919" cy="82.5911" r="11.511" fill="#483CC9" fill-opacity="0.6"/>
</g>
<path d="M71.9477 69.7812H66.4932L60.425 73.8175C59.525 74.4175 58.3113 73.7766 58.3113 72.6857V69.7812C54.2204 69.7812 51.4932 67.0539 51.4932 62.963V54.7811C51.4932 50.6902 54.2204 47.9629 58.3113 47.9629H71.9477C76.0386 47.9629 78.7659 50.6902 78.7659 54.7811V62.963C78.7659 67.0539 76.0386 69.7812 71.9477 69.7812Z" stroke="url(#paint3_linear_1_2103)" stroke-width="2.04545" stroke-miterlimit="10" stroke-linecap="round" stroke-linejoin="round"/>
<path d="M65.1347 60.1412V59.8549C65.1347 58.9277 65.7075 58.4367 66.2802 58.0413C66.8393 57.6595 67.3983 57.1686 67.3983 56.2686C67.3983 55.014 66.3892 54.0049 65.1347 54.0049C63.8801 54.0049 62.8711 55.014 62.8711 56.2686" stroke="url(#paint4_linear_1_2103)" stroke-width="2.04545" stroke-linecap="round" stroke-linejoin="round"/>
<path d="M65.1229 63.3996H65.1352" stroke="url(#paint5_linear_1_2103)" stroke-width="2.04545" stroke-linecap="round" stroke-linejoin="round"/>
<defs>
<filter id="filter0_f_1_2103" x="54.6551" y="15.8895" width="63.3821" height="63.3821" filterUnits="userSpaceOnUse" color-interpolation-filters="sRGB">
<feFlood flood-opacity="0" result="BackgroundImageFix"/>
<feBlend mode="normal" in="SourceGraphic" in2="BackgroundImageFix" result="shape"/>
<feGaussianBlur stdDeviation="10.0899" result="effect1_foregroundBlur_1_2103"/>
</filter>
<filter id="filter1_f_1_2103" x="29.7035" y="1.99062" width="85.4797" height="69.0666" filterUnits="userSpaceOnUse" color-interpolation-filters="sRGB">
<feFlood flood-opacity="0" result="BackgroundImageFix"/>
<feBlend mode="normal" in="SourceGraphic" in2="BackgroundImageFix" result="shape"/>
<feGaussianBlur stdDeviation="11.511" result="effect1_foregroundBlur_1_2103"/>
</filter>
<filter id="filter2_d_1_2103" x="0.000253677" y="0.000308514" width="129.435" height="129.435" filterUnits="userSpaceOnUse" color-interpolation-filters="sRGB">
<feFlood flood-opacity="0" result="BackgroundImageFix"/>
<feColorMatrix in="SourceAlpha" type="matrix" values="0 0 0 0 0 0 0 0 0 0 0 0 0 0 0 0 0 0 127 0" result="hardAlpha"/>
<feOffset dy="3.55279"/>
<feGaussianBlur stdDeviation="14.4349"/>
<feComposite in2="hardAlpha" operator="out"/>
<feColorMatrix type="matrix" values="0 0 0 0 0.036 0 0 0 0 0.0413333 0 0 0 0 0.064 0 0 0 1 0"/>
<feBlend mode="normal" in2="BackgroundImageFix" result="effect1_dropShadow_1_2103"/>
<feBlend mode="normal" in="SourceGraphic" in2="effect1_dropShadow_1_2103" result="shape"/>
</filter>
<filter id="filter3_f_1_2103" x="57.8855" y="56.5847" width="52.0132" height="52.0132" filterUnits="userSpaceOnUse" color-interpolation-filters="sRGB">
<feFlood flood-opacity="0" result="BackgroundImageFix"/>
<feBlend mode="normal" in="SourceGraphic" in2="BackgroundImageFix" result="shape"/>
<feGaussianBlur stdDeviation="7.24769" result="effect1_foregroundBlur_1_2103"/>
</filter>
<linearGradient id="paint0_linear_1_2103" x1="91.186" y1="25.3174" x2="49.6895" y2="61.2006" gradientUnits="userSpaceOnUse">
<stop stop-color="#79AEE7"/>
<stop offset="0.331593" stop-color="#4960A7"/>
<stop offset="1" stop-color="#1B2030"/>
</linearGradient>
<linearGradient id="paint1_linear_1_2103" x1="91.9676" y1="28.6215" x2="41.6246" y2="78.1118" gradientUnits="userSpaceOnUse">
<stop stop-color="#EBF8FC"/>
<stop offset="0.295134" stop-color="#7FB8EF"/>
<stop offset="0.57639" stop-color="#5142F1"/>
<stop offset="1" stop-color="#1D1D29"/>
</linearGradient>
<linearGradient id="paint2_linear_1_2103" x1="85.2888" y1="37.041" x2="59.9929" y2="73.2794" gradientUnits="userSpaceOnUse">
<stop stop-color="#3B4F75"/>
<stop offset="0.529514" stop-color="#1B253E"/>
<stop offset="1" stop-color="#1A1D2C"/>
</linearGradient>
<linearGradient id="paint3_linear_1_2103" x1="75.198" y1="47.9629" x2="60.0178" y2="61.6874" gradientUnits="userSpaceOnUse">
<stop stop-color="#B0D6FF"/>
<stop offset="0.331769" stop-color="#D7DCEC"/>
<stop offset="1" stop-color="white"/>
</linearGradient>
<linearGradient id="paint4_linear_1_2103" x1="66.806" y1="54.0049" x2="63.5511" y2="56.0814" gradientUnits="userSpaceOnUse">
<stop stop-color="#B0D6FF"/>
<stop offset="0.331769" stop-color="#D7DCEC"/>
<stop offset="1" stop-color="white"/>
</linearGradient>
<linearGradient id="paint5_linear_1_2103" x1="65.6325" y1="62.7178" x2="64.8432" y2="63.4003" gradientUnits="userSpaceOnUse">
<stop stop-color="#B0D6FF"/>
<stop offset="0.331769" stop-color="#D7DCEC"/>
<stop offset="1" stop-color="white"/>
</linearGradient>
</defs>
</svg>
