<svg width="85" height="19" viewBox="0 0 85 19" fill="none" xmlns="http://www.w3.org/2000/svg">
<g clip-path="url(#clip0_474_4291)">
<path d="M0.107422 0.519531H4.96913V13.7978H13.4622V18.0575H0.107422V0.519531Z" fill="white"/>
<path d="M15.5415 0.519531H29.6464V4.65258H20.3506V7.3092H28.7696V11.1436H20.3506V13.9245H29.7706V18.0575H15.5391V0.519531H15.5415Z" fill="white"/>
<path d="M46.2825 16.8531C44.7798 17.8302 42.9498 18.4059 40.9454 18.4059C35.5342 18.4059 31.5254 14.3732 31.5254 9.33713V9.28696C31.5254 4.25085 35.5844 0.167969 40.9956 0.167969C46.4068 0.167969 50.4156 4.20068 50.4156 9.23679V9.28696C50.4156 11.1409 49.8637 12.8944 48.8627 14.3231L50.6664 15.8521L48.2105 18.5827L46.2801 16.8531H46.2825ZM42.7754 13.7712L40.3457 11.6903L42.8017 8.93338L45.1812 11.0883C45.3819 10.5627 45.4822 9.98695 45.4822 9.38491V9.33474C45.4822 6.77846 43.6546 4.54948 40.9478 4.54948C38.241 4.54948 36.5137 6.75457 36.5137 9.28457V9.33474C36.5137 11.8647 38.3175 14.0961 40.998 14.0961C41.6502 14.0961 42.2498 13.9719 42.7778 13.7712H42.7754Z" fill="white"/>
<path d="M56.4814 4.7792H51.2207V0.519531H66.6038V4.7792H61.3431V18.0575H56.4814V4.7792Z" fill="white"/>
<path d="M72.54 0.392578H77.2249L84.6907 18.0572H79.4802L78.202 14.9251H71.4386L70.1844 18.0572H65.0742L72.54 0.392578ZM76.7997 11.1409L74.8454 6.15496L72.8649 11.1409H76.7973H76.7997Z" fill="white"/>
</g>
<defs>
<clipPath id="clip0_474_4291">
<rect width="84.5842" height="18.4148" fill="white" transform="translate(0.107422 0.167969)"/>
</clipPath>
</defs>
</svg>
