<svg width="524" height="618" viewBox="0 0 524 618" fill="none" xmlns="http://www.w3.org/2000/svg">
<g style="mix-blend-mode:exclusion" opacity="0.15">
<path d="M545.205 547.39C487.532 591.071 413.996 617.325 333.851 617.325C149.815 617.325 0.00195312 478.812 0.00195312 308.658C0.00195312 138.503 149.815 0.0351562 333.851 0.0351562C340.02 0.0351562 346.237 0.261485 352.308 0.487815C365.184 39.6428 392.993 130.582 410.569 223.829C422.711 288.379 426.578 336.496 425.844 371.622C182.96 217.537 135.128 226.636 103.892 257.009C49.646 309.97 146.388 419.966 175.274 446.583C247.977 513.576 372.185 560.969 445.868 520.773C456.296 515.07 465.549 507.737 473.432 498.91C495.757 513.848 519.698 530.008 545.156 547.39H545.205Z" fill="url(#paint0_linear_1_4718)"/>
<path d="M403.275 452.778C403.275 452.778 402.932 453.095 402.687 453.095C375.026 468.259 290.621 442.005 235.151 390.9C213.413 370.802 196.082 347.128 185.115 328.252C219.337 342.375 283.571 375.6 403.275 452.733V452.778Z" fill="url(#paint1_linear_1_4718)"/>
<path d="M185.115 328.252C219.337 342.375 283.571 375.6 403.275 452.733V452.778C403.275 452.778 402.933 453.094 402.688 453.095C375.242 468.14 291.936 442.413 236.456 392.093L235.152 390.9C213.414 370.802 196.082 347.128 185.115 328.252ZM189.71 332.192C200.65 350.052 216.763 371.334 236.535 389.615H236.536C264.056 414.969 298.782 434.178 330.044 445.153C345.673 450.64 360.376 454.048 372.828 455.156C384.036 456.153 393.189 455.264 399.563 452.557C287.559 380.496 224.718 347.31 189.71 332.192Z" fill="url(#paint2_linear_1_4718)"/>
<path d="M667.666 308.696C667.666 376.369 644.019 439.017 603.824 489.85C568.965 465.814 536.31 443.815 506.347 423.853C515.552 372.114 511.439 301.635 494.206 210.288C480.497 137.32 461.061 66.7503 446.373 18.1348C575.183 60.911 667.666 175.026 667.666 308.696Z" fill="url(#paint3_linear_1_4718)"/>
<path d="M665.705 308.697C665.705 177.057 575.474 64.4864 449.282 21.0506C463.849 69.5564 482.731 138.612 496.138 209.977L496.937 214.247C513.392 302.952 517.335 371.919 508.473 423.035C537.715 442.522 569.507 463.945 603.399 487.299C642.649 437.032 665.705 375.317 665.705 308.697ZM667.649 311.864C666.923 378.323 643.391 439.811 603.824 489.851C573.323 468.819 544.508 449.346 517.709 431.433L506.347 423.853C515.408 372.922 511.565 303.833 495.005 214.555L494.206 210.288C480.498 137.319 461.061 66.7502 446.373 18.1348C575.183 60.911 667.666 175.027 667.666 308.697L667.649 311.864Z" fill="url(#paint4_linear_1_4718)"/>
<path d="M0.00195312 308.658C0.00195312 138.504 149.815 0.0354738 333.85 0.0351562L336.166 0.0459356C341.571 0.0923469 346.996 0.289859 352.307 0.48789C365.184 39.6428 392.993 130.582 410.569 223.83C422.711 288.379 426.578 336.497 425.844 371.623C182.96 217.538 135.127 226.637 103.892 257.01C49.6468 309.971 146.388 419.966 175.274 446.583C247.409 513.053 370.248 560.228 444.132 521.7L445.868 520.773C456.296 515.069 465.549 507.737 473.432 498.91C495.757 513.847 519.698 530.008 545.156 547.39H545.206C487.533 591.071 413.996 617.325 333.85 617.325V615.511C412.607 615.511 484.939 590.008 541.975 547.475C517.831 530.999 495.064 515.63 473.757 501.367C465.994 509.774 456.976 516.806 446.867 522.335H446.864C409.318 542.817 359.177 540.867 309.584 525.594C260.712 510.543 211.995 482.451 175.612 449.443L173.889 447.867C159.341 434.461 127.798 400.161 106.668 362.51C96.1038 343.687 88.072 323.905 86.1455 305.404C84.2148 286.861 88.4141 269.483 102.468 255.762L102.471 255.759L103.978 254.323C111.592 247.218 120.421 241.318 132.776 238.669C145.908 235.854 162.781 236.764 186.079 243.412C232.229 256.58 304.302 292.482 423.937 368.217C424.36 333.544 420.379 286.564 408.637 224.141L407.806 219.777C390.4 129.134 363.665 41.3924 350.836 2.24897C345.21 2.04122 339.506 1.84878 333.85 1.84878C150.898 1.8491 1.96354 139.506 1.96354 308.658C1.9637 477.81 150.898 615.511 333.85 615.511V617.325L331.696 617.318C149.366 616.247 1.16909 479.229 0.00923984 310.651L0.00195312 308.658Z" fill="url(#paint5_linear_1_4718)"/>
</g>
<defs>
<linearGradient id="paint0_linear_1_4718" x1="86.5277" y1="-56.5825" x2="532.8" y2="625.443" gradientUnits="userSpaceOnUse">
<stop stop-color="#1370AD"/>
<stop offset="0.09" stop-color="#115F98"/>
<stop offset="0.27" stop-color="#104375"/>
<stop offset="0.45" stop-color="#0E2D5A"/>
<stop offset="0.63" stop-color="#0D1D46"/>
<stop offset="0.81" stop-color="#0D143A"/>
<stop offset="1" stop-color="#0D1137"/>
</linearGradient>
<linearGradient id="paint1_linear_1_4718" x1="219.738" y1="316.41" x2="282.123" y2="498.805" gradientUnits="userSpaceOnUse">
<stop stop-color="#1370AD"/>
<stop offset="0.09" stop-color="#115F98"/>
<stop offset="0.27" stop-color="#104375"/>
<stop offset="0.45" stop-color="#0E2D5A"/>
<stop offset="0.63" stop-color="#0D1D46"/>
<stop offset="0.81" stop-color="#0D143A"/>
<stop offset="1" stop-color="#0D1137"/>
</linearGradient>
<linearGradient id="paint2_linear_1_4718" x1="294.195" y1="328.252" x2="294.195" y2="457.367" gradientUnits="userSpaceOnUse">
<stop stop-color="#999999"/>
<stop offset="1" stop-color="white" stop-opacity="0"/>
</linearGradient>
<linearGradient id="paint3_linear_1_4718" x1="481.493" y1="-25.1308" x2="845.708" y2="270.518" gradientUnits="userSpaceOnUse">
<stop stop-color="#1370AD"/>
<stop offset="0.09" stop-color="#115F98"/>
<stop offset="0.27" stop-color="#104375"/>
<stop offset="0.45" stop-color="#0E2D5A"/>
<stop offset="0.63" stop-color="#0D1D46"/>
<stop offset="0.81" stop-color="#0D143A"/>
<stop offset="1" stop-color="#0D1137"/>
</linearGradient>
<linearGradient id="paint4_linear_1_4718" x1="557.02" y1="18.1348" x2="557.02" y2="489.85" gradientUnits="userSpaceOnUse">
<stop stop-color="#999999"/>
<stop offset="1" stop-color="white" stop-opacity="0"/>
</linearGradient>
<linearGradient id="paint5_linear_1_4718" x1="272.604" y1="0.0351562" x2="272.604" y2="617.325" gradientUnits="userSpaceOnUse">
<stop stop-color="#999999"/>
<stop offset="1" stop-color="white" stop-opacity="0"/>
</linearGradient>
</defs>
</svg>
