<svg width="880" height="636" viewBox="0 0 880 636" xmlns="http://www.w3.org/2000/svg">
<g>
<path d="M718.592 795.338C642.577 858.81 545.655 896.959 440.021 896.959C197.458 896.959 0 695.691 0 448.447C0 201.202 197.458 0 440.021 0C448.152 0 456.347 0.32887 464.349 0.657739C481.32 57.5522 517.972 189.692 541.138 325.186C557.141 418.98 562.239 488.897 561.271 539.938C241.144 316.044 178.099 329.264 136.93 373.399C65.4321 450.354 192.941 610.185 231.013 648.86C326.838 746.205 490.547 815.07 587.663 756.663C601.408 748.376 613.604 737.72 623.993 724.894C653.418 746.6 684.972 770.081 718.527 795.338H718.592Z" fill="#e2fbfd" stroke="white" stroke-width="2"/>
<path d="M531.524 657.862C531.524 657.862 531.073 658.322 530.75 658.322C494.291 680.357 383.044 642.208 309.933 567.949C281.282 538.745 258.439 504.346 243.984 476.918C289.09 497.439 373.752 545.717 531.524 657.796V657.862Z" fill="#e2fbfd" stroke="white" stroke-width="2"/>
<path d="M243.984 476.918C289.09 497.439 373.752 545.718 531.525 657.797V657.861C531.525 657.861 531.073 658.321 530.751 658.322C494.577 680.184 384.777 642.8 311.653 569.682L309.934 567.95C281.283 538.746 258.439 504.346 243.984 476.918ZM250.041 482.643C264.46 508.595 285.697 539.519 311.757 566.082H311.758C348.03 602.923 393.8 630.834 435.004 646.782C455.604 654.755 474.983 659.707 491.395 661.317C506.167 662.766 518.231 661.474 526.632 657.54C379.007 552.831 296.181 504.611 250.041 482.643Z" fill="#e2fbfd" stroke="white" stroke-width="2"/>
<path d="M879.998 448.506C879.998 546.838 848.831 637.869 795.853 711.733C749.908 676.807 706.867 644.841 667.376 615.834C679.507 540.655 674.087 438.245 651.373 305.513C633.305 199.485 607.687 96.9439 588.328 26.3027C758.103 88.4591 879.998 254.275 879.998 448.506Z" fill="#e2fbfd" stroke="white" stroke-width="2"/>
<path d="M877.413 448.506C877.413 257.226 758.487 93.6544 592.162 30.5396C611.362 101.021 636.249 201.364 653.92 305.06L654.973 311.265C676.66 440.159 681.857 540.372 670.178 614.646C708.72 642.962 750.622 674.091 795.292 708.025C847.025 634.985 877.413 545.31 877.413 448.506ZM879.975 453.109C879.019 549.678 848.003 639.024 795.853 711.734C755.652 681.173 717.673 652.878 682.35 626.85L667.375 615.835C679.317 541.83 674.253 441.439 652.426 311.713L651.373 305.512C633.305 199.485 607.687 96.9438 588.328 26.3027C758.103 88.4591 879.998 254.276 879.998 448.506L879.975 453.109Z" fill="#e2fbfd" stroke="white" stroke-width="2"/>
<path d="M0 448.447C0 201.203 197.457 0.000461359 440.021 0L443.073 0.0156631C450.197 0.0831013 457.347 0.370098 464.348 0.657848C481.319 57.5523 517.972 189.692 541.138 325.186C557.141 418.98 562.238 488.898 561.27 539.939C241.143 316.044 178.099 329.265 136.929 373.399C65.4331 450.355 192.941 610.185 231.013 648.86C326.089 745.444 487.993 813.993 585.374 758.009L587.662 756.662C601.407 748.375 613.603 737.72 623.992 724.894C653.418 746.599 684.972 770.081 718.527 795.338H718.593C642.578 858.81 545.654 896.958 440.021 896.958V894.323C543.824 894.323 639.16 857.265 714.334 795.462C682.512 771.522 652.504 749.189 624.421 728.465C614.19 740.68 602.303 750.898 588.98 758.932H588.976C539.489 788.694 473.401 785.86 408.037 763.668C343.623 741.798 279.412 700.978 231.458 653.016L229.188 650.725C210.013 631.247 168.438 581.406 140.588 526.698C126.665 499.346 116.079 470.602 113.539 443.719C110.995 416.775 116.529 391.523 135.053 371.586L135.056 371.582L137.043 369.495C147.079 359.171 158.715 350.597 175 346.749C192.308 342.658 214.546 343.981 245.254 353.64C306.081 372.775 401.075 424.942 558.758 534.989C559.315 484.608 554.067 416.343 538.591 325.639L537.496 319.297C514.555 187.588 479.317 60.0945 462.408 2.2168C454.993 2.91492 447.475 2.63531 440.021 2.63531C198.885 2.63577 2.58542 202.659 2.58542 448.447C2.58563 694.235 198.885 894.323 440.021 894.323V896.958L437.182 896.949C196.865 895.391 1.53832 696.296 0.00960408 451.343L0 448.447Z" fill="#e2fbfd" stroke="white" stroke-width="2"/>
</g>
</svg>
