<svg width="397" height="374" viewBox="0 0 397 374" fill="none" xmlns="http://www.w3.org/2000/svg">
<g style="mix-blend-mode:plus-lighter" opacity="0.2">
<path d="M323.626 331.541C289.392 357.999 245.742 373.902 198.169 373.902C88.9274 373.902 0 290.002 0 186.937C0 83.8722 88.9274 0 198.169 0C201.83 0 205.521 0.137091 209.125 0.274182C216.768 23.9909 233.274 79.0741 243.707 135.556C250.915 174.654 253.21 203.799 252.774 225.076C108.602 131.744 80.209 137.255 61.6679 155.653C29.4681 187.732 86.893 254.359 104.039 270.48C147.195 311.059 220.923 339.766 264.661 315.419C270.851 311.964 276.343 307.522 281.022 302.176C294.274 311.224 308.485 321.012 323.597 331.541H323.626Z" fill="url(#paint0_linear_1_2008)"/>
<path d="M239.38 274.232C239.38 274.232 239.176 274.424 239.031 274.424C222.611 283.609 172.51 267.707 139.583 236.751C126.68 224.578 116.393 210.238 109.883 198.805C130.197 207.359 168.325 227.484 239.38 274.205V274.232Z" fill="url(#paint1_linear_1_2008)"/>
<path d="M109.883 198.805C130.197 207.359 168.325 227.484 239.38 274.205V274.232C239.38 274.232 239.177 274.423 239.031 274.424C222.74 283.537 173.29 267.953 140.358 237.474L139.584 236.752C126.681 224.578 116.393 210.238 109.883 198.805ZM112.61 201.191C119.104 212.009 128.669 224.9 140.405 235.973H140.406C156.741 251.33 177.354 262.965 195.911 269.613C205.188 272.937 213.916 275.001 221.307 275.672C227.959 276.276 233.393 275.738 237.177 274.098C170.692 230.45 133.39 210.349 112.61 201.191Z" fill="url(#paint2_linear_1_2008)"/>
<path d="M396.318 186.962C396.318 227.952 382.281 265.899 358.422 296.69C337.73 282.131 318.346 268.806 300.561 256.714C306.024 225.375 303.583 182.685 293.354 127.355C285.217 83.1569 273.679 40.412 264.961 10.9648C341.421 36.875 396.318 105.996 396.318 186.962Z" fill="url(#paint3_linear_1_2008)"/>
<path d="M395.153 186.962C395.153 107.226 341.594 39.0407 266.688 12.731C275.334 42.1117 286.543 83.9398 294.501 127.166L294.975 129.753C304.742 183.483 307.083 225.257 301.823 256.219C319.181 268.022 338.052 280.998 358.17 295.144C381.468 264.697 395.153 227.316 395.153 186.962ZM396.307 188.881C395.877 229.136 381.909 266.381 358.422 296.69C340.317 283.951 323.213 272.156 307.305 261.306L300.561 256.714C305.939 225.865 303.658 184.016 293.828 129.94L293.354 127.355C285.217 83.1567 273.679 40.4119 264.961 10.9648C341.421 36.875 396.318 105.997 396.318 186.962L396.307 188.881Z" fill="url(#paint4_linear_1_2008)"/>
<path d="M0 186.937C0 83.8725 88.9272 0.00019232 198.168 0L199.543 0.00652922C202.751 0.0346412 205.971 0.154277 209.124 0.274227C216.767 23.991 233.275 79.0742 243.708 135.556C250.915 174.654 253.21 203.8 252.774 225.076C108.602 131.745 80.2087 137.256 61.6676 155.653C29.4685 187.733 86.8931 254.358 104.039 270.48C146.858 310.742 219.773 339.317 263.63 315.98L264.66 315.419C270.85 311.964 276.343 307.522 281.022 302.176C294.274 311.224 308.485 321.012 323.597 331.541H323.626C289.392 357.999 245.741 373.902 198.168 373.902V372.803C244.917 372.803 287.853 357.355 321.708 331.592C307.377 321.613 293.862 312.303 281.215 303.664C276.607 308.756 271.254 313.016 265.254 316.364H265.252C242.965 328.771 213.202 327.59 183.764 318.339C154.754 309.222 125.836 292.206 104.24 272.213L103.217 271.258C94.5817 263.138 75.8581 242.362 63.3155 219.557C57.0448 208.155 52.2773 196.173 51.1338 184.966C49.9877 173.735 52.4803 163.209 60.8224 154.898L60.8242 154.896L61.7186 154.026C66.2384 149.722 71.4793 146.148 78.8131 144.544C86.6079 142.839 96.6234 143.39 110.453 147.417C137.847 155.393 180.628 177.139 251.643 223.013C251.894 202.011 249.53 173.555 242.56 135.744L242.067 133.101C231.736 78.1972 215.866 25.0507 208.25 1.34094C204.911 1.2151 201.525 1.09854 198.168 1.09854C89.57 1.09873 1.16437 84.4794 1.16437 186.937C1.16447 289.395 89.5703 372.803 198.168 372.803V373.902L196.89 373.898C88.6604 373.248 0.6928 290.255 0.0043253 188.144L0 186.937Z" fill="url(#paint5_linear_1_2008)"/>
</g>
<defs>
<linearGradient id="paint0_linear_1_2008" x1="51.3606" y1="-34.2941" x2="323.825" y2="373.769" gradientUnits="userSpaceOnUse">
<stop stop-color="#1370AD"/>
<stop offset="0.09" stop-color="#115F98"/>
<stop offset="0.27" stop-color="#104375"/>
<stop offset="0.45" stop-color="#0E2D5A"/>
<stop offset="0.63" stop-color="#0D1D46"/>
<stop offset="0.81" stop-color="#0D143A"/>
<stop offset="1" stop-color="#0D1137"/>
</linearGradient>
<linearGradient id="paint1_linear_1_2008" x1="130.434" y1="191.632" x2="168.828" y2="301.636" gradientUnits="userSpaceOnUse">
<stop stop-color="#1370AD"/>
<stop offset="0.09" stop-color="#115F98"/>
<stop offset="0.27" stop-color="#104375"/>
<stop offset="0.45" stop-color="#0E2D5A"/>
<stop offset="0.63" stop-color="#0D1D46"/>
<stop offset="0.81" stop-color="#0D143A"/>
<stop offset="1" stop-color="#0D1137"/>
</linearGradient>
<linearGradient id="paint2_linear_1_2008" x1="174.631" y1="198.805" x2="174.631" y2="277.011" gradientUnits="userSpaceOnUse">
<stop stop-color="#999999"/>
<stop offset="1" stop-color="white" stop-opacity="0"/>
</linearGradient>
<linearGradient id="paint3_linear_1_2008" x1="285.808" y1="-15.2418" x2="505.46" y2="159.49" gradientUnits="userSpaceOnUse">
<stop stop-color="#1370AD"/>
<stop offset="0.09" stop-color="#115F98"/>
<stop offset="0.27" stop-color="#104375"/>
<stop offset="0.45" stop-color="#0E2D5A"/>
<stop offset="0.63" stop-color="#0D1D46"/>
<stop offset="0.81" stop-color="#0D143A"/>
<stop offset="1" stop-color="#0D1137"/>
</linearGradient>
<linearGradient id="paint4_linear_1_2008" x1="330.639" y1="10.9648" x2="330.639" y2="296.69" gradientUnits="userSpaceOnUse">
<stop stop-color="#999999"/>
<stop offset="1" stop-color="white" stop-opacity="0"/>
</linearGradient>
<linearGradient id="paint5_linear_1_2008" x1="161.813" y1="0" x2="161.813" y2="373.902" gradientUnits="userSpaceOnUse">
<stop stop-color="#999999"/>
<stop offset="1" stop-color="white" stop-opacity="0"/>
</linearGradient>
</defs>
</svg>
