<svg width="546" height="119" viewBox="0 0 546 119" fill="none" xmlns="http://www.w3.org/2000/svg">
<g clip-path="url(#clip0_1_6559)">
<path d="M323.945 58.8389V58.5146C323.945 26.4817 298.446 0.801758 263.939 0.801758C229.434 0.801954 203.61 26.8058 203.61 58.8389V59.1621C203.61 91.1951 229.11 116.875 263.616 116.875V117.677L262.799 117.672C228.555 117.273 203.211 91.8087 202.813 59.9229L202.809 59.1621V58.8389C202.809 26.3445 229.01 0.000195886 263.939 0L264.757 0.00488281C299.272 0.407085 324.747 26.2741 324.747 58.5146V58.8389L324.736 59.958C324.521 71.5055 320.982 82.403 314.723 91.333L326.366 101.198L310.513 118.817L298.059 107.662C288.36 113.963 276.551 117.677 263.616 117.677V116.875C276.004 116.875 287.337 113.428 296.736 107.554L295.956 106.855H300.771L299.373 107.764L310.451 117.687L325.218 101.275L313.647 91.4717L314.066 90.873C320.43 81.7944 323.945 70.6416 323.945 58.8389ZM30.5811 3.06738H0.801758V114.625H85.4053V88.7432H30.5811V3.06738ZM129.865 28.1318H189.87V3.06738H100.409V114.625H190.673V89.5605H129.865V70.0146H184.211V46.876H129.865V28.1318ZM394.483 28.9492H428.442V3.06738H330.745V28.9492H364.704V114.625H394.483V28.9492ZM546 115.427H512.365L504.115 95.2178H460.457L452.36 115.427H419.374L467.566 1.44922H497.808L546 115.427ZM420.583 114.625H451.817L459.914 94.416H504.653L512.904 114.625H544.791L497.276 2.25H468.097L420.583 114.625ZM234.208 58.8232C234.208 42.1483 245.63 27.4697 263.632 27.4697C281.618 27.4699 293.703 42.2853 293.703 59.1465V59.4707C293.703 63.4439 293.04 67.2566 291.707 70.7471L291.289 71.8418L275.659 57.6934L260.887 74.2686L275.95 87.1631L275.562 87.6152L275.729 88.5215C272.235 89.8488 268.268 90.6699 263.955 90.6699C246.132 90.6698 234.208 75.8315 234.208 59.1465V58.8232ZM496.237 71.6016H468.482L482.453 36.4473L496.237 71.6016ZM469.663 70.8008H495.062L482.448 38.6299L469.663 70.8008ZM86.2061 87.9414V115.427H0V2.26562H31.3828V87.9414H86.2061ZM235.009 59.1465L235.018 59.9102C235.368 75.6632 246.559 89.4255 263.148 89.8584L263.955 89.8682C268.165 89.8682 272.036 89.0673 275.444 87.7725H275.429L259.745 74.3457L275.599 56.5566L290.958 70.4609C292.172 67.2818 292.818 63.8184 292.894 60.1973L292.901 59.4707V59.1465C292.901 42.9104 281.47 28.7207 264.446 28.2812L263.632 28.2705C246.159 28.2705 235.009 42.4989 235.009 58.8232V59.1465ZM395.285 115.427H363.902V29.751H329.944V2.26562H429.243V29.751H395.285V115.427ZM130.667 46.0752H185.013V70.8154H130.667V88.7588H191.474V115.427H99.6074V2.26562H190.672V28.9336H130.667V46.0752Z" fill="url(#paint0_linear_1_6559)"/>
</g>
<defs>
<linearGradient id="paint0_linear_1_6559" x1="309.367" y1="0.0592843" x2="310.066" y2="87.6011" gradientUnits="userSpaceOnUse">
<stop stop-color="white"/>
<stop offset="1" stop-color="#999999" stop-opacity="0"/>
</linearGradient>
<clipPath id="clip0_1_6559">
<rect width="546" height="118.818" fill="white"/>
</clipPath>
</defs>
</svg>
