<svg width="77" height="23" viewBox="0 0 77 23" fill="none" xmlns="http://www.w3.org/2000/svg">
<path d="M71.3656 0.143343V18.4625H64.4565V8.23265H55.9969C50.9464 8.23265 47.8072 10.8702 47.8072 15.1107V15.18C47.8072 16.1715 47.9697 17.0554 48.3065 17.8868C48.3113 17.8987 48.3137 17.9083 48.3185 17.9155C48.3423 17.9537 48.3615 17.9895 48.3758 18.0277L48.5502 18.4625H42.4199L42.5585 18.0445C42.8045 17.3039 42.9264 16.5633 42.9264 15.7892V15.7319C42.9264 11.3742 39.6773 8.66746 34.4453 8.66746H28.4918V0H23.4557V18.4625H17.096V8.23265H8.63879C3.47128 8.23265 0 10.9968 0 15.1107V15.18C0 19.5997 3.7723 22.8058 8.96848 22.8058H76.4136V0.143343H71.3656ZM12.0599 18.4195H9.04732C6.88284 18.4195 5.48525 17.2489 5.48525 15.438V15.3807C5.48525 13.4647 6.79445 12.3657 9.07599 12.3657H12.0599V18.4219V18.4195ZM37.8903 15.5192C37.8903 17.1462 36.937 18.1902 35.2098 18.4578L28.8095 18.4625H28.4918V12.4804H34.3258C36.4903 12.4804 37.8879 13.651 37.8879 15.4619V15.5169L37.8903 15.5192ZM59.418 18.4195H56.4054C56.0016 18.4195 55.6791 18.3861 55.3853 18.3144C53.7942 18.0206 52.8409 16.9479 52.8409 15.438V15.3807C52.8409 13.4647 54.1501 12.3657 56.4317 12.3657H59.4156V18.4219L59.418 18.4195Z" fill="white"/>
<path d="M53.1994 1.104H53.1922C51.8715 1.104 50.8008 2.17469 50.8008 3.49544V3.50261C50.8008 4.82336 51.8715 5.89404 53.1922 5.89404H53.1994C54.5201 5.89404 55.5908 4.82336 55.5908 3.50261V3.49544C55.5908 2.17469 54.5201 1.104 53.1994 1.104Z" fill="white"/>
<path d="M59.0685 1.104H59.0614C57.7406 1.104 56.6699 2.17469 56.6699 3.49544V3.50261C56.6699 4.82336 57.7406 5.89404 59.0614 5.89404H59.0685C60.3893 5.89404 61.46 4.82336 61.46 3.50261V3.49544C61.46 2.17469 60.3893 1.104 59.0685 1.104Z" fill="white"/>
<path d="M5.83806 1.104H5.83089C4.51014 1.104 3.43945 2.17469 3.43945 3.49544V3.50261C3.43945 4.82336 4.51014 5.89404 5.83089 5.89404H5.83806C7.15881 5.89404 8.22949 4.82336 8.22949 3.50261V3.49544C8.22949 2.17469 7.15881 1.104 5.83806 1.104Z" fill="white"/>
<path d="M11.7091 1.10449H11.702C10.3812 1.10449 9.31055 2.17517 9.31055 3.49593V3.50309C9.31055 4.82385 10.3812 5.89453 11.702 5.89453H11.7091C13.0299 5.89453 14.1006 4.82385 14.1006 3.50309V3.49593C14.1006 2.17517 13.0299 1.10449 11.7091 1.10449Z" fill="white"/>
</svg>
