<svg width="27" height="27" viewBox="0 0 27 27" fill="none" xmlns="http://www.w3.org/2000/svg">
<path d="M15.8825 19.6396C15.8825 19.6396 15.8681 19.654 15.8586 19.654C14.7692 20.299 11.446 19.1809 9.26003 17.0045C8.40475 16.1492 7.72148 15.1387 7.28906 14.3359C8.63648 14.938 11.1665 16.3547 15.8801 19.6372L15.8825 19.6396Z" fill="white"/>
<path d="M26.2958 13.5007C26.2958 16.3843 25.364 19.0528 23.7801 21.2173C22.4088 20.1948 21.1211 19.2559 19.9409 18.4054C20.304 16.2003 20.1416 13.1997 19.4631 9.30791C18.9232 6.19976 18.1587 3.19196 17.5781 1.12305C22.6501 2.9435 26.2934 7.8076 26.2934 13.5007H26.2958Z" fill="white"/>
<path d="M21.4727 23.671C19.2008 25.5321 16.3052 26.6502 13.1493 26.6502C5.90094 26.6502 0 20.7492 0 13.5009C0 6.25251 5.90094 0.351562 13.1493 0.351562C13.393 0.351562 13.6367 0.361115 13.8756 0.370672C14.3821 2.03823 15.4762 5.91326 16.1715 9.88625C16.6493 12.636 16.8022 14.6858 16.7735 16.1838C7.20536 9.61867 5.32279 10.0057 4.09482 11.3029C1.95663 13.5606 5.76716 18.2455 6.90673 19.3779C9.7712 22.2328 14.6616 24.2492 17.5643 22.5386C17.9752 22.2949 18.3383 21.9844 18.6489 21.6069C19.5281 22.2424 20.4693 22.9304 21.4751 23.6734L21.4727 23.671Z" fill="white"/>
</svg>
