<svg preserveAspectRatio="none" width="100%" height="100%" overflow="visible" style="display: block;" viewBox="0 0 884.071 896.959" fill="none" xmlns="http://www.w3.org/2000/svg">
<g id="Group" style="mix-blend-mode:plus-lighter" opacity="0.16">
<path id="Vector" d="M721.919 795.338C645.552 858.81 548.181 896.959 442.059 896.959C198.372 896.959 0 695.691 0 448.447C0 201.202 198.372 0 442.059 0C450.227 0 458.46 0.32887 466.498 0.657739C483.548 57.5522 520.37 189.692 543.643 325.186C559.72 418.98 564.842 488.897 563.869 539.938C242.26 316.044 178.924 329.264 137.564 373.399C65.7351 450.354 193.834 610.185 232.082 648.86C328.351 746.205 492.818 815.07 590.384 756.663C604.192 748.376 616.444 737.72 626.882 724.894C656.443 746.6 688.143 770.081 721.854 795.338H721.919Z" fill="url(#paint0_linear_0_18)"/>
<path id="Vector_2" d="M533.985 657.862C533.985 657.862 533.531 658.322 533.207 658.322C496.579 680.357 384.817 642.208 311.367 567.949C282.584 538.745 259.635 504.346 245.113 476.918C290.428 497.439 375.481 545.717 533.985 657.796V657.862Z" fill="url(#paint1_linear_0_18)"/>
<path id="Vector (Stroke)" d="M245.113 476.918C290.428 497.439 375.482 545.718 533.985 657.797V657.861C533.985 657.861 533.531 658.321 533.207 658.322C496.866 680.184 386.558 642.8 313.095 569.682L311.368 567.95C282.585 538.746 259.635 504.346 245.113 476.918ZM251.198 482.643C265.684 508.595 287.019 539.519 313.199 566.082H313.201C349.641 602.923 395.622 630.834 437.017 646.782C457.712 654.755 477.181 659.707 493.669 661.317C508.509 662.766 520.629 661.474 529.07 657.54C380.761 552.831 297.552 504.611 251.198 482.643Z" fill="url(#paint2_linear_0_18)"/>
<path id="Vector_3" d="M884.071 448.506C884.071 546.838 852.759 637.869 799.536 711.733C753.379 676.807 710.139 644.841 670.464 615.834C682.652 540.655 677.207 438.245 654.387 305.513C636.236 199.485 610.499 96.9439 591.051 26.3027C761.612 88.4591 884.071 254.275 884.071 448.506Z" fill="url(#paint3_linear_0_18)"/>
<path id="Vector (Stroke)_2" d="M881.474 448.506C881.474 257.226 761.997 93.6544 594.902 30.5396C614.191 101.021 639.194 201.364 656.946 305.06L658.004 311.265C679.792 440.159 685.013 540.372 673.28 614.646C712 642.962 754.096 674.091 798.973 708.025C850.946 634.985 881.474 545.31 881.474 448.506ZM884.048 453.109C883.087 549.678 851.928 639.024 799.536 711.734C759.149 681.173 720.994 652.878 685.508 626.85L670.464 615.835C682.461 541.83 677.373 441.439 655.445 311.713L654.388 305.512C636.236 199.485 610.499 96.9438 591.051 26.3027C761.612 88.4591 884.071 254.276 884.071 448.506L884.048 453.109Z" fill="url(#paint4_linear_0_18)"/>
<path id="Vector (Stroke)_3" d="M0 448.447C0 201.203 198.372 0.000461359 442.058 0L445.124 0.0156631C452.282 0.0831013 459.464 0.370098 466.497 0.657848C483.547 57.5523 520.37 189.692 543.643 325.186C559.721 418.98 564.841 488.898 563.869 539.939C242.26 316.044 178.923 329.265 137.563 373.399C65.736 450.355 193.834 610.185 232.082 648.86C327.599 745.444 490.252 813.993 588.085 758.009L590.383 756.662C604.191 748.375 616.444 737.72 626.881 724.894C656.443 746.599 688.144 770.081 721.854 795.338H721.919C645.553 858.81 548.18 896.958 442.058 896.958V894.323C546.342 894.323 642.119 857.265 717.641 795.462C685.671 771.522 655.525 749.189 627.312 728.465C617.033 740.68 605.091 750.898 591.707 758.932H591.703C541.986 788.694 475.593 785.86 409.926 763.668C345.213 741.798 280.706 700.978 232.53 653.016L230.249 650.725C210.985 631.247 169.218 581.406 141.239 526.698C127.251 499.346 116.616 470.602 114.065 443.719C111.508 416.775 117.069 391.523 135.678 371.586L135.682 371.582L137.677 369.495C147.759 359.171 159.45 350.597 175.81 346.749C193.198 342.658 215.54 343.981 246.389 353.64C307.498 372.775 402.931 424.942 561.345 534.989C561.904 484.608 556.632 416.343 541.085 325.639L539.985 319.297C516.937 187.588 481.536 60.0945 464.548 3.2168C457.1 2.91492 449.547 2.63531 442.058 2.63531C199.806 2.63577 2.59739 202.659 2.59739 448.447C2.5976 694.235 199.806 894.323 442.058 894.323V896.958L439.206 896.949C197.776 895.391 1.54544 696.296 0.00964854 451.343L0 448.447Z" fill="url(#paint5_linear_0_18)"/>
</g>
<defs>
<linearGradient id="paint0_linear_0_18" x1="114.571" y1="-82.2688" x2="785.118" y2="851.58" gradientUnits="userSpaceOnUse">
<stop stop-color="#1370AD"/>
<stop offset="0.09" stop-color="#115F98"/>
<stop offset="0.27" stop-color="#104375"/>
<stop offset="0.45" stop-color="#0E2D5A"/>
<stop offset="0.63" stop-color="#0D1D46"/>
<stop offset="0.81" stop-color="#0D143A"/>
<stop offset="1" stop-color="#0D1137"/>
</linearGradient>
<linearGradient id="paint1_linear_0_18" x1="290.958" y1="459.71" x2="388.351" y2="719.191" gradientUnits="userSpaceOnUse">
<stop stop-color="#1370AD"/>
<stop offset="0.09" stop-color="#115F98"/>
<stop offset="0.27" stop-color="#104375"/>
<stop offset="0.45" stop-color="#0E2D5A"/>
<stop offset="0.63" stop-color="#0D1D46"/>
<stop offset="0.81" stop-color="#0D143A"/>
<stop offset="1" stop-color="#0D1137"/>
</linearGradient>
<linearGradient id="paint2_linear_0_18" x1="389.549" y1="476.918" x2="389.549" y2="664.529" gradientUnits="userSpaceOnUse">
<stop stop-color="#999999"/>
<stop offset="1" stop-color="white" stop-opacity="0"/>
</linearGradient>
<linearGradient id="paint3_linear_0_18" x1="637.554" y1="-36.5647" x2="1154.65" y2="345.943" gradientUnits="userSpaceOnUse">
<stop stop-color="#1370AD"/>
<stop offset="0.09" stop-color="#115F98"/>
<stop offset="0.27" stop-color="#104375"/>
<stop offset="0.45" stop-color="#0E2D5A"/>
<stop offset="0.63" stop-color="#0D1D46"/>
<stop offset="0.81" stop-color="#0D143A"/>
<stop offset="1" stop-color="#0D1137"/>
</linearGradient>
<linearGradient id="paint4_linear_0_18" x1="737.561" y1="26.3027" x2="737.561" y2="711.733" gradientUnits="userSpaceOnUse">
<stop stop-color="#999999"/>
<stop offset="1" stop-color="white" stop-opacity="0"/>
</linearGradient>
<linearGradient id="paint5_linear_0_18" x1="360.959" y1="0" x2="360.959" y2="896.959" gradientUnits="userSpaceOnUse">
<stop stop-color="#999999"/>
<stop offset="1" stop-color="white" stop-opacity="0"/>
</linearGradient>
</defs>
</svg>
