<svg width="120" height="120" viewBox="0 0 120 120" fill="none" xmlns="http://www.w3.org/2000/svg">
<g clip-path="url(#clip0_1_2001)">
<rect x="20" y="20" width="80" height="80" rx="40" fill="url(#paint0_linear_1_2001)"/>
<path d="M66.0562 57.5394L77.3763 49.9595C78.5163 49.1995 78.8162 47.6395 78.0562 46.5195L74.4162 41.0994C73.6562 39.9594 72.0962 39.6594 70.9762 40.4194L59.6562 47.9994L66.0562 57.5394Z" stroke="white" stroke-width="3" stroke-linecap="round" stroke-linejoin="round"/>
<path d="M60.3522 48.9577L50.7969 55.3574L55.9167 63.0017L65.472 56.602L60.3522 48.9577Z" stroke="white" stroke-width="3" stroke-linecap="round" stroke-linejoin="round"/>
<path d="M47.6611 67.7998L55.5611 62.5198L51.0811 55.8398L43.1811 61.1198C42.2611 61.7398 42.0211 62.9798 42.6411 63.8998L44.9011 67.2598C45.5011 68.1598 46.7411 68.3998 47.6611 67.7998Z" stroke="white" stroke-width="3" stroke-linecap="round" stroke-linejoin="round"/>
<path d="M60.105 60.4004L51.125 80.0004" stroke="white" stroke-width="3" stroke-linecap="round" stroke-linejoin="round"/>
<path d="M60 60.4004L68.88 80.0004" stroke="white" stroke-width="3" stroke-linecap="round" stroke-linejoin="round"/>
<g filter="url(#filter0_f_1_2001)">
<circle cx="81.7405" cy="86.7405" r="18.7405" fill="#483CC9" fill-opacity="0.6"/>
</g>
</g>
<rect x="3" y="3" width="114" height="114" rx="57" stroke="url(#paint1_linear_1_2001)" stroke-width="6"/>
<defs>
<filter id="filter0_f_1_2001" x="39.4008" y="44.4008" width="84.6799" height="84.6789" filterUnits="userSpaceOnUse" color-interpolation-filters="sRGB">
<feFlood flood-opacity="0" result="BackgroundImageFix"/>
<feBlend mode="normal" in="SourceGraphic" in2="BackgroundImageFix" result="shape"/>
<feGaussianBlur stdDeviation="11.7996" result="effect1_foregroundBlur_1_2001"/>
</filter>
<linearGradient id="paint0_linear_1_2001" x1="32.6963" y1="12.6624" x2="87.3842" y2="107.291" gradientUnits="userSpaceOnUse">
<stop stop-color="#1370AD"/>
<stop offset="0.09" stop-color="#115F98"/>
<stop offset="0.27" stop-color="#104375"/>
<stop offset="0.45" stop-color="#0E2D5A"/>
<stop offset="0.63" stop-color="#0D1D46"/>
<stop offset="0.81" stop-color="#0D143A"/>
<stop offset="1" stop-color="#0D1137"/>
</linearGradient>
<linearGradient id="paint1_linear_1_2001" x1="19.0444" y1="-11.0064" x2="101.076" y2="130.937" gradientUnits="userSpaceOnUse">
<stop stop-color="#1370AD"/>
<stop offset="0.09" stop-color="#115F98"/>
<stop offset="0.27" stop-color="#104375"/>
<stop offset="0.45" stop-color="#0E2D5A"/>
<stop offset="0.63" stop-color="#0D1D46"/>
<stop offset="0.81" stop-color="#0D143A"/>
<stop offset="1" stop-color="#0D1137"/>
</linearGradient>
<clipPath id="clip0_1_2001">
<rect width="120" height="120" rx="60" fill="white"/>
</clipPath>
</defs>
</svg>
