<svg width="984" height="320" viewBox="0 0 984 320" fill="none" xmlns="http://www.w3.org/2000/svg">
<g filter="url(#filter0_d_1_10641)">
<path d="M73.0391 118.48C69.1991 118.48 65.5831 118.032 62.1911 117.136C58.8631 116.176 55.9191 114.8 53.3591 113.008C50.8631 111.152 48.8791 108.848 47.4071 106.096C45.9991 103.344 45.2951 100.144 45.2951 96.4957C45.2951 92.3357 46.2231 88.6877 48.0791 85.5517C49.9991 82.3517 52.6231 79.6637 55.9511 77.4877C59.2791 75.3117 63.1831 73.5837 67.6631 72.3037C72.1431 71.0237 77.0071 70.1917 82.2551 69.8077L83.0231 83.1517C79.7591 83.3437 76.6231 83.7917 73.6151 84.4957C70.6711 85.1357 68.0151 85.9997 65.6471 87.0877C63.3431 88.1757 61.4871 89.5197 60.0791 91.1197C58.7351 92.7197 58.0631 94.5117 58.0631 96.4957C58.0631 98.4157 58.7031 100.016 59.9831 101.296C61.2631 102.576 63.0231 103.536 65.2631 104.176C67.5031 104.816 70.0631 105.136 72.9431 105.136C75.3111 105.136 77.4871 104.944 79.4711 104.56C81.5191 104.112 83.4711 103.536 85.3271 102.832L90.4151 115.12C87.7271 116.208 84.8791 117.04 81.8711 117.616C78.9271 118.192 75.9831 118.48 73.0391 118.48ZM103.375 122.032C98.5111 122.032 94.4471 121.168 91.1831 119.44C87.9191 117.712 85.4551 115.152 83.7911 111.76C82.1271 108.368 81.2951 104.208 81.2951 99.2797V67.0237H94.0631V99.2797C94.0631 101.392 94.2871 103.056 94.7351 104.272C95.2471 105.424 96.1751 106.224 97.5191 106.672C98.8631 107.056 100.815 107.248 103.375 107.248H107.023V122.032H103.375ZM107.023 122.032V107.248C107.663 107.248 108.143 107.92 108.463 109.264C108.783 110.608 108.943 112.368 108.943 114.544C108.943 116.784 108.783 118.608 108.463 120.016C108.143 121.36 107.663 122.032 107.023 122.032ZM77.7431 57.6157C75.8871 57.6157 74.3191 57.0077 73.0391 55.7917C71.8231 54.5757 71.2151 53.0077 71.2151 51.0877C71.2151 49.1677 71.8231 47.5997 73.0391 46.3837C74.3191 45.1677 75.8871 44.5597 77.7431 44.5597C79.5991 44.5597 81.1351 45.1677 82.3511 46.3837C83.6311 47.5997 84.2711 49.1677 84.2711 51.0877C84.2711 53.0077 83.6311 54.5757 82.3511 55.7917C81.1351 57.0077 79.5991 57.6157 77.7431 57.6157ZM62.7671 57.6157C60.9111 57.6157 59.3431 57.0077 58.0631 55.7917C56.8471 54.5757 56.2391 53.0077 56.2391 51.0877C56.2391 49.1677 56.8471 47.5997 58.0631 46.3837C59.3431 45.1677 60.9111 44.5597 62.7671 44.5597C64.6231 44.5597 66.1591 45.1677 67.3751 46.3837C68.6551 47.5997 69.2951 49.1677 69.2951 51.0877C69.2951 53.0077 68.6551 54.5757 67.3751 55.7917C66.1591 57.0077 64.6231 57.6157 62.7671 57.6157ZM106.986 122.032V107.248H112.074C114.698 107.248 116.682 107.056 118.026 106.672C119.37 106.224 120.266 105.424 120.714 104.272C121.162 103.056 121.386 101.392 121.386 99.2797V73.9357H134.25V99.2797C134.25 104.208 133.418 108.368 131.754 111.76C130.09 115.088 127.626 117.648 124.362 119.44C121.098 121.168 117.002 122.032 112.074 122.032H106.986ZM143.562 122.032C138.634 122.032 134.538 121.168 131.274 119.44C128.01 117.712 125.546 115.152 123.882 111.76C122.218 108.368 121.386 104.208 121.386 99.2797H134.25C134.25 101.392 134.474 103.056 134.922 104.272C135.37 105.424 136.266 106.224 137.61 106.672C138.954 107.056 140.938 107.248 143.562 107.248H147.21V122.032H143.562ZM147.21 122.032V107.248C147.85 107.248 148.33 107.92 148.65 109.264C148.97 110.608 149.13 112.368 149.13 114.544C149.13 116.784 148.97 118.608 148.65 120.016C148.33 121.36 147.85 122.032 147.21 122.032ZM106.986 122.032C106.346 122.032 105.866 121.36 105.546 120.016C105.226 118.608 105.066 116.784 105.066 114.544C105.066 112.304 105.226 110.544 105.546 109.264C105.866 107.92 106.346 107.248 106.986 107.248V122.032ZM134.826 145.264C132.97 145.264 131.402 144.656 130.122 143.44C128.906 142.224 128.298 140.688 128.298 138.832C128.298 136.912 128.906 135.344 130.122 134.128C131.402 132.912 132.97 132.304 134.826 132.304C136.682 132.304 138.218 132.912 139.434 134.128C140.714 135.344 141.354 136.912 141.354 138.832C141.354 140.688 140.714 142.224 139.434 143.44C138.218 144.656 136.682 145.264 134.826 145.264ZM119.85 145.264C117.994 145.264 116.426 144.656 115.146 143.44C113.93 142.224 113.322 140.688 113.322 138.832C113.322 136.912 113.93 135.344 115.146 134.128C116.426 132.912 117.994 132.304 119.85 132.304C121.706 132.304 123.242 132.912 124.458 134.128C125.738 135.344 126.378 136.912 126.378 138.832C126.378 140.688 125.738 142.224 124.458 143.44C123.242 144.656 121.706 145.264 119.85 145.264ZM185.509 118.48C180.133 118.48 175.205 117.712 170.725 116.176C166.245 114.64 162.693 112.272 160.069 109.072C157.445 105.808 156.133 101.616 156.133 96.4957C156.133 92.3357 156.901 88.7197 158.437 85.6477C160.037 82.5117 162.213 79.9197 164.965 77.8717C167.717 75.7597 170.853 74.1917 174.373 73.1677C177.893 72.0797 181.573 71.5357 185.413 71.5357C188.357 71.5357 191.397 71.8557 194.533 72.4957C197.733 73.1357 200.613 74.0957 203.173 75.3757L197.605 87.7597C195.813 87.3117 193.797 86.9597 191.557 86.7037C189.317 86.4477 187.301 86.3197 185.509 86.3197C180.069 86.3197 175.941 87.3757 173.125 89.4877C170.309 91.5357 168.901 94.2237 168.901 97.5517C168.901 99.5357 169.445 101.264 170.533 102.736C171.685 104.208 173.477 105.328 175.909 106.096C178.405 106.864 181.605 107.248 185.509 107.248V118.48ZM147.205 122.032V107.248H204.613V122.032H147.205ZM147.205 122.032C146.565 122.032 146.085 121.36 145.765 120.016C145.445 118.608 145.285 116.784 145.285 114.544C145.285 112.304 145.445 110.544 145.765 109.264C146.085 107.92 146.565 107.248 147.205 107.248V122.032ZM214.782 122.032V40.5277H227.646V122.032H214.782ZM277.195 122.032V107.248H295.627V122.032H277.195ZM295.627 122.032V107.248C296.267 107.248 296.747 107.92 297.067 109.264C297.387 110.608 297.547 112.368 297.547 114.544C297.547 116.784 297.387 118.608 297.067 120.016C296.747 121.36 296.267 122.032 295.627 122.032ZM275.371 122.032C275.307 115.184 274.091 109.104 271.723 103.792C269.419 98.4797 266.091 94.0637 261.739 90.5437C257.387 86.9597 252.139 84.4317 245.995 82.9597L248.779 68.9437C256.843 70.7997 263.787 74.1917 269.611 79.1197C275.435 84.0477 279.947 90.1597 283.147 97.4557C286.411 104.752 288.075 112.944 288.139 122.032H275.371ZM238.411 122.032V107.248H284.299V122.032H238.411ZM309.723 73.9357H322.491V122.032H295.611V107.248H309.723V73.9357ZM295.611 122.032C294.971 122.032 294.491 121.36 294.171 120.016C293.851 118.672 293.691 116.848 293.691 114.544C293.691 112.304 293.851 110.544 294.171 109.264C294.491 107.92 294.971 107.248 295.611 107.248V122.032ZM311.451 149.2C309.275 149.2 307.451 148.464 305.979 146.992C304.507 145.52 303.771 143.696 303.771 141.52C303.771 139.28 304.507 137.424 305.979 135.952C307.451 134.544 309.275 133.84 311.451 133.84C313.691 133.84 315.515 134.544 316.923 135.952C318.395 137.424 319.131 139.28 319.131 141.52C319.131 143.696 318.395 145.52 316.923 146.992C315.515 148.464 313.691 149.2 311.451 149.2ZM380.733 122.032V40.5277H393.597V122.032H380.733ZM336.189 122.032V107.248H393.597V122.032H336.189ZM349.821 122.032V63.4717H362.589V122.032H349.821ZM359.901 149.488C355.869 149.488 352.573 148.688 350.013 147.088C347.517 145.552 346.269 143.28 346.269 140.272C346.269 138.16 346.877 136.336 348.093 134.8C349.309 133.328 350.877 132.176 352.797 131.344C354.781 130.512 356.925 130.096 359.229 130.096C360.573 130.096 361.885 130.224 363.165 130.48C364.509 130.8 365.789 131.28 367.005 131.92L364.029 138.352C363.453 138.224 362.749 138.128 361.917 138.064C361.149 138 360.477 137.968 359.901 137.968C357.789 137.968 356.125 138.256 354.909 138.832C353.693 139.408 353.085 140.08 353.085 140.848C353.085 141.616 353.693 142.288 354.909 142.864C356.125 143.504 357.789 143.824 359.901 143.824V149.488ZM344.253 151.696V143.824H368.253V151.696H344.253ZM408.189 122.032V40.5277H421.053V122.032H408.189Z" fill="url(#paint0_linear_1_10641)"/>
<path d="M499.644 154.192C490.812 154.192 483.26 152.784 476.988 149.968C470.78 147.216 466.012 143.152 462.684 137.776C459.356 132.464 457.692 125.968 457.692 118.288C457.692 116.176 457.82 114.032 458.076 111.856C458.332 109.616 458.716 107.312 459.228 104.944L471.036 107.248C470.716 109.552 470.46 111.536 470.268 113.2C470.14 114.864 470.076 116.368 470.076 117.712C470.076 125.136 472.444 130.608 477.18 134.128C481.98 137.712 489.34 139.504 499.26 139.504C505.148 139.504 510.108 138.96 514.14 137.872C518.172 136.848 521.244 135.472 523.356 133.744C525.468 132.08 526.524 130.32 526.524 128.464C526.524 127.184 526.044 126.096 525.084 125.2C524.124 124.304 522.588 123.376 520.476 122.416C518.428 121.52 515.804 120.464 512.604 119.248L516.348 106.48C518.908 107.44 521.532 108.528 524.22 109.744C526.972 110.896 529.468 112.336 531.708 114.064C534.012 115.728 535.868 117.744 537.276 120.112C538.684 122.416 539.388 125.2 539.388 128.464C539.388 131.344 538.78 134.064 537.564 136.624C536.412 139.184 534.716 141.52 532.476 143.632C530.236 145.808 527.484 147.664 524.22 149.2C521.02 150.8 517.34 152.016 513.18 152.848C509.084 153.744 504.572 154.192 499.644 154.192ZM527.58 122.032C517.98 122.032 510.716 119.632 505.788 114.832L514.716 104.368C515.228 104.816 516.092 105.264 517.308 105.712C518.588 106.16 520.124 106.544 521.916 106.864C523.708 107.12 525.596 107.248 527.58 107.248H539.772V122.032H527.58ZM539.772 122.032V107.248C540.412 107.248 540.892 107.92 541.212 109.264C541.532 110.608 541.692 112.368 541.692 114.544C541.692 116.784 541.532 118.608 541.212 120.016C540.892 121.36 540.412 122.032 539.772 122.032ZM507.228 177.52C505.372 177.52 503.804 176.912 502.524 175.696C501.308 174.48 500.7 172.944 500.7 171.088C500.7 169.168 501.308 167.6 502.524 166.384C503.804 165.168 505.372 164.56 507.228 164.56C509.084 164.56 510.62 165.168 511.836 166.384C513.116 167.6 513.756 169.168 513.756 171.088C513.756 172.944 513.116 174.48 511.836 175.696C510.62 176.912 509.084 177.52 507.228 177.52ZM492.252 177.52C490.396 177.52 488.828 176.912 487.548 175.696C486.332 174.48 485.724 172.944 485.724 171.088C485.724 169.168 486.332 167.6 487.548 166.384C488.828 165.168 490.396 164.56 492.252 164.56C494.108 164.56 495.644 165.168 496.86 166.384C498.14 167.6 498.78 169.168 498.78 171.088C498.78 172.944 498.14 174.48 496.86 175.696C495.644 176.912 494.108 177.52 492.252 177.52ZM539.736 122.032V107.248C543.192 107.248 546.456 107.184 549.528 107.056C552.664 106.864 555.576 106.64 558.264 106.384C558.648 106.32 559 106.512 559.32 106.96C559.64 107.344 559.96 107.728 560.28 108.112C560.664 108.496 561.016 108.688 561.336 108.688C566.52 107.92 570.776 106.864 574.104 105.52C577.496 104.112 580.024 102.512 581.688 100.72C583.352 98.8637 584.184 96.8477 584.184 94.6717C584.184 92.7517 583.704 91.0557 582.744 89.5837C581.784 88.0477 580.472 86.8637 578.808 86.0317C577.144 85.1357 575.192 84.6877 572.952 84.6877C570.712 84.6877 568.728 85.1357 567 86.0317C565.272 86.9277 563.928 88.1437 562.968 89.6797C562.008 91.1517 561.528 92.7837 561.528 94.5757C561.528 96.7517 562.392 98.7997 564.12 100.72C565.848 102.576 568.472 104.208 571.992 105.616C575.512 106.96 579.992 108.016 585.432 108.784C585.816 108.848 586.168 108.688 586.488 108.304C586.808 107.856 587.128 107.44 587.448 107.056C587.768 106.608 588.12 106.416 588.504 106.48C591.064 106.736 593.784 106.928 596.664 107.056C599.608 107.184 602.712 107.248 605.976 107.248V122.032C597.592 122.032 589.912 121.488 582.936 120.4C575.96 119.248 569.912 117.552 564.792 115.312C559.736 113.008 555.8 110.064 552.984 106.48C550.168 102.896 548.76 98.6397 548.76 93.7117C548.76 89.2317 549.848 85.3277 552.024 81.9997C554.2 78.6717 557.112 76.0477 560.76 74.1277C564.408 72.2077 568.44 71.2477 572.856 71.2477C577.336 71.2477 581.4 72.2077 585.048 74.1277C588.696 75.9837 591.608 78.6077 593.784 81.9997C595.96 85.3277 597.048 89.2637 597.048 93.8077C597.048 98.2237 595.928 102.064 593.688 105.328C591.512 108.528 588.504 111.216 584.664 113.392C580.824 115.568 576.44 117.296 571.512 118.576C566.648 119.792 561.496 120.688 556.056 121.264C550.616 121.776 545.176 122.032 539.736 122.032ZM605.976 122.032V107.248C606.616 107.248 607.096 107.92 607.416 109.264C607.736 110.608 607.896 112.368 607.896 114.544C607.896 116.784 607.736 118.608 607.416 120.016C607.096 121.36 606.616 122.032 605.976 122.032ZM539.736 122.032C539.096 122.032 538.616 121.36 538.296 120.016C537.976 118.608 537.816 116.784 537.816 114.544C537.816 112.304 537.976 110.544 538.296 109.264C538.616 107.92 539.096 107.248 539.736 107.248V122.032ZM580.344 60.9757C578.488 60.9757 576.92 60.3677 575.64 59.1517C574.424 57.9357 573.816 56.3677 573.816 54.4477C573.816 52.5277 574.424 50.9597 575.64 49.7437C576.92 48.5277 578.488 47.9197 580.344 47.9197C582.2 47.9197 583.736 48.5277 584.952 49.7437C586.232 50.9597 586.872 52.5277 586.872 54.4477C586.872 56.3677 586.232 57.9357 584.952 59.1517C583.736 60.3677 582.2 60.9757 580.344 60.9757ZM565.368 60.9757C563.512 60.9757 561.944 60.3677 560.664 59.1517C559.448 57.9357 558.84 56.3677 558.84 54.4477C558.84 52.5277 559.448 50.9597 560.664 49.7437C561.944 48.5277 563.512 47.9197 565.368 47.9197C567.224 47.9197 568.76 48.5277 569.976 49.7437C571.256 50.9597 571.896 52.5277 571.896 54.4477C571.896 56.3677 571.256 57.9357 569.976 59.1517C568.76 60.3677 567.224 60.9757 565.368 60.9757ZM606.018 122.032V107.248H611.106C613.73 107.248 615.714 107.056 617.058 106.672C618.402 106.224 619.298 105.424 619.746 104.272C620.194 103.056 620.418 101.392 620.418 99.2797V73.9357H633.282V99.2797C633.282 104.208 632.45 108.368 630.786 111.76C629.122 115.088 626.658 117.648 623.394 119.44C620.13 121.168 616.034 122.032 611.106 122.032H606.018ZM642.594 122.032C637.666 122.032 633.57 121.168 630.306 119.44C627.042 117.712 624.578 115.152 622.914 111.76C621.25 108.368 620.418 104.208 620.418 99.2797H633.282C633.282 101.392 633.506 103.056 633.954 104.272C634.402 105.424 635.298 106.224 636.642 106.672C637.986 107.056 639.97 107.248 642.594 107.248H646.242V122.032H642.594ZM646.242 122.032V107.248C646.882 107.248 647.362 107.92 647.682 109.264C648.002 110.608 648.162 112.368 648.162 114.544C648.162 116.784 648.002 118.608 647.682 120.016C647.362 121.36 646.882 122.032 646.242 122.032ZM606.018 122.032C605.378 122.032 604.898 121.36 604.578 120.016C604.258 118.608 604.098 116.784 604.098 114.544C604.098 112.304 604.258 110.544 604.578 109.264C604.898 107.92 605.378 107.248 606.018 107.248V122.032ZM633.858 63.6637C632.002 63.6637 630.434 63.0557 629.154 61.8397C627.938 60.6237 627.33 59.0557 627.33 57.1357C627.33 55.2157 627.938 53.6477 629.154 52.4317C630.434 51.2157 632.002 50.6077 633.858 50.6077C635.714 50.6077 637.25 51.2157 638.466 52.4317C639.746 53.6477 640.386 55.2157 640.386 57.1357C640.386 59.0557 639.746 60.6237 638.466 61.8397C637.25 63.0557 635.714 63.6637 633.858 63.6637ZM618.882 63.6637C617.026 63.6637 615.458 63.0557 614.178 61.8397C612.962 60.6237 612.354 59.0557 612.354 57.1357C612.354 55.2157 612.962 53.6477 614.178 52.4317C615.458 51.2157 617.026 50.6077 618.882 50.6077C620.738 50.6077 622.274 51.2157 623.49 52.4317C624.77 53.6477 625.41 55.2157 625.41 57.1357C625.41 59.0557 624.77 60.6237 623.49 61.8397C622.274 63.0557 620.738 63.6637 618.882 63.6637ZM646.236 122.032V107.248H649.98C652.604 107.248 654.588 107.056 655.932 106.672C657.276 106.224 658.172 105.424 658.62 104.272C659.068 103.056 659.292 101.392 659.292 99.2797V40.5277H672.156V99.2797C672.156 104.208 671.324 108.368 669.66 111.76C667.996 115.088 665.532 117.648 662.268 119.44C659.004 121.168 654.908 122.032 649.98 122.032H646.236ZM681.468 122.032C676.54 122.032 672.444 121.168 669.18 119.44C665.916 117.712 663.452 115.152 661.788 111.76C660.124 108.368 659.292 104.208 659.292 99.2797H672.156C672.156 101.392 672.38 103.056 672.828 104.272C673.276 105.424 674.172 106.224 675.516 106.672C676.86 107.056 678.844 107.248 681.468 107.248H683.484V122.032H681.468ZM683.484 122.032V107.248C684.124 107.248 684.604 107.92 684.924 109.264C685.244 110.608 685.404 112.368 685.404 114.544C685.404 116.784 685.244 118.608 684.924 120.016C684.604 121.36 684.124 122.032 683.484 122.032ZM646.236 122.032C645.596 122.032 645.116 121.36 644.796 120.016C644.476 118.608 644.316 116.784 644.316 114.544C644.316 112.304 644.476 110.544 644.796 109.264C645.116 107.92 645.596 107.248 646.236 107.248V122.032ZM697.567 73.9357H710.335V122.032H683.455V107.248H697.567V73.9357ZM683.455 122.032C682.815 122.032 682.335 121.36 682.015 120.016C681.695 118.672 681.535 116.848 681.535 114.544C681.535 112.304 681.695 110.544 682.015 109.264C682.335 107.92 682.815 107.248 683.455 107.248V122.032ZM711.487 63.6637C709.631 63.6637 708.063 63.0557 706.783 61.8397C705.567 60.6237 704.959 59.0557 704.959 57.1357C704.959 55.2157 705.567 53.6477 706.783 52.4317C708.063 51.2157 709.631 50.6077 711.487 50.6077C713.343 50.6077 714.879 51.2157 716.095 52.4317C717.375 53.6477 718.015 55.2157 718.015 57.1357C718.015 59.0557 717.375 60.6237 716.095 61.8397C714.879 63.0557 713.343 63.6637 711.487 63.6637ZM696.511 63.6637C694.655 63.6637 693.087 63.0557 691.807 61.8397C690.591 60.6237 689.983 59.0557 689.983 57.1357C689.983 55.2157 690.591 53.6477 691.807 52.4317C693.087 51.2157 694.655 50.6077 696.511 50.6077C698.367 50.6077 699.903 51.2157 701.119 52.4317C702.399 53.6477 703.039 55.2157 703.039 57.1357C703.039 59.0557 702.399 60.6237 701.119 61.8397C699.903 63.0557 698.367 63.6637 696.511 63.6637ZM775.539 122.128C770.419 122.128 765.971 121.424 762.195 120.016C758.419 118.544 755.315 116.56 752.883 114.064C750.451 111.504 748.627 108.624 747.411 105.424C746.259 102.224 745.683 98.8637 745.683 95.3437C745.683 92.0797 746.163 88.8157 747.123 85.5517C748.083 82.2877 749.523 79.1837 751.443 76.2397L761.523 80.8477C760.371 83.2157 759.507 85.4557 758.931 87.5677C758.419 89.6797 758.163 91.6957 758.163 93.6157C758.163 96.4957 758.803 98.9917 760.083 101.104C761.363 103.152 763.283 104.72 765.843 105.808C768.403 106.832 771.571 107.344 775.347 107.344L804.627 107.248C807.251 107.248 809.203 107.056 810.483 106.672C811.827 106.224 812.723 105.424 813.171 104.272C813.683 103.056 813.939 101.392 813.939 99.2797V73.9357H826.707V99.2797C826.707 104.208 825.875 108.368 824.211 111.76C822.547 115.088 820.083 117.648 816.819 119.44C813.555 121.168 809.491 122.032 804.627 122.032L775.539 122.128ZM836.019 122.032C831.155 122.032 827.091 121.168 823.827 119.44C820.563 117.712 818.099 115.152 816.435 111.76C814.771 108.368 813.939 104.208 813.939 99.2797H826.707C826.707 101.392 826.931 103.056 827.379 104.272C827.891 105.424 828.819 106.224 830.163 106.672C831.507 107.056 833.459 107.248 836.019 107.248H838.515V122.032H836.019ZM838.515 122.032V107.248C839.155 107.248 839.635 107.92 839.955 109.264C840.275 110.608 840.435 112.368 840.435 114.544C840.435 116.784 840.275 118.608 839.955 120.016C839.635 121.36 839.155 122.032 838.515 122.032ZM786.195 44.5597C788.051 44.5597 789.555 45.1677 790.707 46.3837C791.923 47.5997 792.531 49.1357 792.531 50.9917C792.531 52.8477 791.923 54.3837 790.707 55.5997C789.555 56.7517 788.051 57.3277 786.195 57.3277C784.403 57.3277 782.867 56.7517 781.587 55.5997C780.371 54.3837 779.763 52.8477 779.763 50.9917C779.763 49.1357 780.371 47.5997 781.587 46.3837C782.867 45.1677 784.403 44.5597 786.195 44.5597ZM793.683 57.7117C795.539 57.7117 797.075 58.3197 798.291 59.5357C799.571 60.7517 800.211 62.2877 800.211 64.1437C800.211 66.0637 799.571 67.6317 798.291 68.8477C797.075 70.0637 795.539 70.6717 793.683 70.6717C791.827 70.6717 790.259 70.0637 788.979 68.8477C787.763 67.6317 787.155 66.0637 787.155 64.1437C787.155 62.2877 787.763 60.7517 788.979 59.5357C790.259 58.3197 791.827 57.7117 793.683 57.7117ZM778.707 57.7117C780.563 57.7117 782.099 58.3197 783.315 59.5357C784.595 60.7517 785.235 62.2877 785.235 64.1437C785.235 66.0637 784.595 67.6317 783.315 68.8477C782.099 70.0637 780.563 70.6717 778.707 70.6717C776.851 70.6717 775.283 70.0637 774.003 68.8477C772.787 67.6317 772.179 66.0637 772.179 64.1437C772.179 62.2877 772.787 60.7517 774.003 59.5357C775.283 58.3197 776.851 57.7117 778.707 57.7117ZM838.518 122.032V107.248H843.606C846.23 107.248 848.214 107.056 849.558 106.672C850.902 106.224 851.798 105.424 852.246 104.272C852.694 103.056 852.918 101.392 852.918 99.2797V73.9357H865.782V99.2797C865.782 104.208 864.95 108.368 863.286 111.76C861.622 115.088 859.158 117.648 855.894 119.44C852.63 121.168 848.534 122.032 843.606 122.032H838.518ZM875.094 122.032C870.166 122.032 866.07 121.168 862.806 119.44C859.542 117.712 857.078 115.152 855.414 111.76C853.75 108.368 852.918 104.208 852.918 99.2797H865.782C865.782 101.392 866.006 103.056 866.454 104.272C866.902 105.424 867.798 106.224 869.142 106.672C870.486 107.056 872.47 107.248 875.094 107.248H878.742V122.032H875.094ZM878.742 122.032V107.248C879.382 107.248 879.862 107.92 880.182 109.264C880.502 110.608 880.662 112.368 880.662 114.544C880.662 116.784 880.502 118.608 880.182 120.016C879.862 121.36 879.382 122.032 878.742 122.032ZM838.518 122.032C837.878 122.032 837.398 121.36 837.078 120.016C836.758 118.608 836.598 116.784 836.598 114.544C836.598 112.304 836.758 110.544 837.078 109.264C837.398 107.92 837.878 107.248 838.518 107.248V122.032ZM866.358 145.264C864.502 145.264 862.934 144.656 861.654 143.44C860.438 142.224 859.83 140.688 859.83 138.832C859.83 136.912 860.438 135.344 861.654 134.128C862.934 132.912 864.502 132.304 866.358 132.304C868.214 132.304 869.75 132.912 870.966 134.128C872.246 135.344 872.886 136.912 872.886 138.832C872.886 140.688 872.246 142.224 870.966 143.44C869.75 144.656 868.214 145.264 866.358 145.264ZM851.382 145.264C849.526 145.264 847.958 144.656 846.678 143.44C845.462 142.224 844.854 140.688 844.854 138.832C844.854 136.912 845.462 135.344 846.678 134.128C847.958 132.912 849.526 132.304 851.382 132.304C853.238 132.304 854.774 132.912 855.99 134.128C857.27 135.344 857.91 136.912 857.91 138.832C857.91 140.688 857.27 142.224 855.99 143.44C854.774 144.656 853.238 145.264 851.382 145.264ZM921.168 116.272V96.5917C921.168 94.0317 920.464 91.7917 919.056 89.8717C917.648 87.9517 915.6 86.4477 912.912 85.3597C910.288 84.2077 907.12 83.6317 903.408 83.6317C900.592 83.6317 897.776 83.9517 894.96 84.5917C892.208 85.2317 889.776 86.0317 887.664 86.9917L882.288 74.8957C885.488 72.9117 888.88 71.4077 892.464 70.3837C896.112 69.3597 899.792 68.8477 903.504 68.8477C907.728 68.8477 911.664 69.4877 915.312 70.7677C919.024 72.0477 922.256 73.9037 925.008 76.3357C927.824 78.7677 930 81.6797 931.536 85.0717C933.136 88.4637 933.936 92.3037 933.936 96.5917V116.272H921.168ZM878.736 122.032V107.248H937.872L935.28 122.032H878.736ZM878.736 122.032C878.096 122.032 877.616 121.36 877.296 120.016C876.976 118.608 876.816 116.784 876.816 114.544C876.816 112.304 876.976 110.544 877.296 109.264C877.616 107.92 878.096 107.248 878.736 107.248V122.032ZM173.82 229.48C169.98 229.48 166.364 229.032 162.972 228.136C159.644 227.176 156.7 225.8 154.14 224.008C151.644 222.152 149.66 219.848 148.188 217.096C146.78 214.344 146.076 211.144 146.076 207.496C146.076 203.336 147.004 199.688 148.86 196.552C150.78 193.352 153.404 190.664 156.732 188.488C160.06 186.312 163.964 184.584 168.444 183.304C172.924 182.024 177.788 181.192 183.036 180.808L183.804 194.152C180.54 194.344 177.404 194.792 174.396 195.496C171.452 196.136 168.796 197 166.428 198.088C164.124 199.176 162.268 200.52 160.86 202.12C159.516 203.72 158.844 205.512 158.844 207.496C158.844 209.416 159.484 211.016 160.764 212.296C162.044 213.576 163.804 214.536 166.044 215.176C168.284 215.816 170.844 216.136 173.724 216.136C176.092 216.136 178.268 215.944 180.252 215.56C182.3 215.112 184.252 214.536 186.108 213.832L191.196 226.12C188.508 227.208 185.66 228.04 182.652 228.616C179.708 229.192 176.764 229.48 173.82 229.48ZM204.156 233.032C199.292 233.032 195.228 232.168 191.964 230.44C188.7 228.712 186.236 226.152 184.572 222.76C182.908 219.368 182.076 215.208 182.076 210.28V178.024H194.844V210.28C194.844 212.392 195.068 214.056 195.516 215.272C196.028 216.424 196.956 217.224 198.3 217.672C199.644 218.056 201.596 218.248 204.156 218.248H207.804V233.032H204.156ZM207.804 233.032V218.248C208.444 218.248 208.924 218.92 209.244 220.264C209.564 221.608 209.724 223.368 209.724 225.544C209.724 227.784 209.564 229.608 209.244 231.016C208.924 232.36 208.444 233.032 207.804 233.032ZM178.524 168.616C176.668 168.616 175.1 168.008 173.82 166.792C172.604 165.576 171.996 164.008 171.996 162.088C171.996 160.168 172.604 158.6 173.82 157.384C175.1 156.168 176.668 155.56 178.524 155.56C180.38 155.56 181.916 156.168 183.132 157.384C184.412 158.6 185.052 160.168 185.052 162.088C185.052 164.008 184.412 165.576 183.132 166.792C181.916 168.008 180.38 168.616 178.524 168.616ZM163.548 168.616C161.692 168.616 160.124 168.008 158.844 166.792C157.628 165.576 157.02 164.008 157.02 162.088C157.02 160.168 157.628 158.6 158.844 157.384C160.124 156.168 161.692 155.56 163.548 155.56C165.404 155.56 166.94 156.168 168.156 157.384C169.436 158.6 170.076 160.168 170.076 162.088C170.076 164.008 169.436 165.576 168.156 166.792C166.94 168.008 165.404 168.616 163.548 168.616ZM207.768 233.032V218.248H212.856C215.48 218.248 217.464 218.056 218.808 217.672C220.152 217.224 221.048 216.424 221.496 215.272C221.944 214.056 222.168 212.392 222.168 210.28V184.936H235.032V210.28C235.032 215.208 234.2 219.368 232.536 222.76C230.872 226.088 228.408 228.648 225.144 230.44C221.88 232.168 217.784 233.032 212.856 233.032H207.768ZM244.344 233.032C239.416 233.032 235.32 232.168 232.056 230.44C228.792 228.712 226.328 226.152 224.664 222.76C223 219.368 222.168 215.208 222.168 210.28H235.032C235.032 212.392 235.256 214.056 235.704 215.272C236.152 216.424 237.048 217.224 238.392 217.672C239.736 218.056 241.72 218.248 244.344 218.248H247.992V233.032H244.344ZM247.992 233.032V218.248C248.632 218.248 249.112 218.92 249.432 220.264C249.752 221.608 249.912 223.368 249.912 225.544C249.912 227.784 249.752 229.608 249.432 231.016C249.112 232.36 248.632 233.032 247.992 233.032ZM207.768 233.032C207.128 233.032 206.648 232.36 206.328 231.016C206.008 229.608 205.848 227.784 205.848 225.544C205.848 223.304 206.008 221.544 206.328 220.264C206.648 218.92 207.128 218.248 207.768 218.248V233.032ZM235.608 256.264C233.752 256.264 232.184 255.656 230.904 254.44C229.688 253.224 229.08 251.688 229.08 249.832C229.08 247.912 229.688 246.344 230.904 245.128C232.184 243.912 233.752 243.304 235.608 243.304C237.464 243.304 239 243.912 240.216 245.128C241.496 246.344 242.136 247.912 242.136 249.832C242.136 251.688 241.496 253.224 240.216 254.44C239 255.656 237.464 256.264 235.608 256.264ZM220.632 256.264C218.776 256.264 217.208 255.656 215.928 254.44C214.712 253.224 214.104 251.688 214.104 249.832C214.104 247.912 214.712 246.344 215.928 245.128C217.208 243.912 218.776 243.304 220.632 243.304C222.488 243.304 224.024 243.912 225.24 245.128C226.52 246.344 227.16 247.912 227.16 249.832C227.16 251.688 226.52 253.224 225.24 254.44C224.024 255.656 222.488 256.264 220.632 256.264ZM300.978 233.032V218.248H314.514V233.032H300.978ZM247.986 233.032C247.346 233.032 246.866 232.36 246.546 231.016C246.226 229.608 246.066 227.784 246.066 225.544C246.066 223.304 246.226 221.544 246.546 220.264C246.866 218.92 247.346 218.248 247.986 218.248V233.032ZM290.418 227.272V207.592C290.418 205.032 289.714 202.792 288.306 200.872C286.898 198.952 284.85 197.448 282.162 196.36C279.538 195.208 276.37 194.632 272.658 194.632C269.842 194.632 267.026 194.952 264.21 195.592C261.458 196.232 259.026 197.032 256.914 197.992L251.538 185.896C254.738 183.912 258.13 182.408 261.714 181.384C265.362 180.36 269.042 179.848 272.754 179.848C276.978 179.848 280.914 180.488 284.562 181.768C288.274 183.048 291.506 184.904 294.258 187.336C297.074 189.768 299.25 192.68 300.786 196.072C302.386 199.464 303.186 203.304 303.186 207.592V227.272H290.418ZM247.986 233.032V218.248H307.122L304.53 233.032H247.986ZM314.514 233.032V218.248C315.154 218.248 315.634 218.92 315.954 220.264C316.274 221.608 316.434 223.368 316.434 225.544C316.434 227.784 316.274 229.608 315.954 231.016C315.634 232.36 315.154 233.032 314.514 233.032ZM275.25 260.2C273.074 260.2 271.25 259.464 269.778 257.992C268.306 256.52 267.57 254.696 267.57 252.52C267.57 250.28 268.306 248.424 269.778 246.952C271.25 245.544 273.074 244.84 275.25 244.84C277.49 244.84 279.314 245.544 280.722 246.952C282.194 248.424 282.93 250.28 282.93 252.52C282.93 254.696 282.194 256.52 280.722 257.992C279.314 259.464 277.49 260.2 275.25 260.2ZM314.549 233.032V218.248H319.637C322.261 218.248 324.245 218.056 325.589 217.672C326.933 217.224 327.829 216.424 328.277 215.272C328.725 214.056 328.949 212.392 328.949 210.28V184.936H341.813V210.28C341.813 215.208 340.981 219.368 339.317 222.76C337.653 226.088 335.189 228.648 331.925 230.44C328.661 232.168 324.565 233.032 319.637 233.032H314.549ZM351.125 233.032C346.197 233.032 342.101 232.168 338.837 230.44C335.573 228.712 333.109 226.152 331.445 222.76C329.781 219.368 328.949 215.208 328.949 210.28H341.813C341.813 212.392 342.037 214.056 342.485 215.272C342.933 216.424 343.829 217.224 345.173 217.672C346.517 218.056 348.501 218.248 351.125 218.248H354.773V233.032H351.125ZM354.773 233.032V218.248C355.413 218.248 355.893 218.92 356.213 220.264C356.533 221.608 356.693 223.368 356.693 225.544C356.693 227.784 356.533 229.608 356.213 231.016C355.893 232.36 355.413 233.032 354.773 233.032ZM314.549 233.032C313.909 233.032 313.429 232.36 313.109 231.016C312.789 229.608 312.629 227.784 312.629 225.544C312.629 223.304 312.789 221.544 313.109 220.264C313.429 218.92 313.909 218.248 314.549 218.248V233.032ZM342.389 256.264C340.533 256.264 338.965 255.656 337.685 254.44C336.469 253.224 335.861 251.688 335.861 249.832C335.861 247.912 336.469 246.344 337.685 245.128C338.965 243.912 340.533 243.304 342.389 243.304C344.245 243.304 345.781 243.912 346.997 245.128C348.277 246.344 348.917 247.912 348.917 249.832C348.917 251.688 348.277 253.224 346.997 254.44C345.781 255.656 344.245 256.264 342.389 256.264ZM327.413 256.264C325.557 256.264 323.989 255.656 322.709 254.44C321.493 253.224 320.885 251.688 320.885 249.832C320.885 247.912 321.493 246.344 322.709 245.128C323.989 243.912 325.557 243.304 327.413 243.304C329.269 243.304 330.805 243.912 332.021 245.128C333.301 246.344 333.941 247.912 333.941 249.832C333.941 251.688 333.301 253.224 332.021 254.44C330.805 255.656 329.269 256.264 327.413 256.264ZM368.88 184.936H381.648V233.032H354.768V218.248H368.88V184.936ZM354.768 233.032C354.128 233.032 353.648 232.36 353.328 231.016C353.008 229.672 352.848 227.848 352.848 225.544C352.848 223.304 353.008 221.544 353.328 220.264C353.648 218.92 354.128 218.248 354.768 218.248V233.032ZM382.8 174.664C380.944 174.664 379.376 174.056 378.096 172.84C376.88 171.624 376.272 170.056 376.272 168.136C376.272 166.216 376.88 164.648 378.096 163.432C379.376 162.216 380.944 161.608 382.8 161.608C384.656 161.608 386.192 162.216 387.408 163.432C388.688 164.648 389.328 166.216 389.328 168.136C389.328 170.056 388.688 171.624 387.408 172.84C386.192 174.056 384.656 174.664 382.8 174.664ZM367.824 174.664C365.968 174.664 364.4 174.056 363.12 172.84C361.904 171.624 361.296 170.056 361.296 168.136C361.296 166.216 361.904 164.648 363.12 163.432C364.4 162.216 365.968 161.608 367.824 161.608C369.68 161.608 371.216 162.216 372.432 163.432C373.712 164.648 374.352 166.216 374.352 168.136C374.352 170.056 373.712 171.624 372.432 172.84C371.216 174.056 369.68 174.664 367.824 174.664ZM395.345 233.032V151.528H408.209V233.032H395.345ZM486.029 233.032V218.248C486.669 218.248 487.149 218.92 487.469 220.264C487.789 221.608 487.949 223.368 487.949 225.544C487.949 227.784 487.789 229.608 487.469 231.016C487.149 232.36 486.669 233.032 486.029 233.032ZM482.381 233.032C477.517 233.032 473.453 232.168 470.189 230.44C466.925 228.712 464.461 226.152 462.797 222.76C461.133 219.368 460.301 215.208 460.301 210.28V184.936H473.069V210.28C473.069 212.392 473.293 214.056 473.741 215.272C474.253 216.424 475.181 217.224 476.525 217.672C477.869 218.056 479.821 218.248 482.381 218.248H486.029V233.032H482.381ZM448.685 208.936C444.781 208.936 440.941 208.68 437.165 208.168C433.389 207.592 429.741 206.76 426.221 205.672V190.312C429.421 191.592 432.909 192.552 436.685 193.192C440.461 193.832 444.461 194.152 448.685 194.152C452.909 194.152 456.909 193.832 460.685 193.192C464.461 192.488 467.949 191.528 471.149 190.312V205.672C467.693 206.76 464.077 207.592 460.301 208.168C456.525 208.68 452.653 208.936 448.685 208.936ZM413.549 245.416C416.749 245.416 419.245 245.064 421.037 244.36C422.893 243.72 424.205 242.696 424.973 241.288C425.805 239.88 426.221 238.088 426.221 235.912V184.936H438.989V235.912C438.989 240.712 438.061 244.84 436.205 248.296C434.349 251.752 431.693 254.44 428.237 256.36C424.845 258.28 420.749 259.336 415.949 259.528L413.549 245.416ZM474.221 174.568C472.365 174.568 470.797 173.96 469.517 172.744C468.301 171.528 467.693 169.96 467.693 168.04C467.693 166.12 468.301 164.552 469.517 163.336C470.797 162.12 472.365 161.512 474.221 161.512C476.077 161.512 477.613 162.12 478.829 163.336C480.109 164.552 480.749 166.12 480.749 168.04C480.749 169.96 480.109 171.528 478.829 172.744C477.613 173.96 476.077 174.568 474.221 174.568ZM459.245 174.568C457.389 174.568 455.821 173.96 454.541 172.744C453.325 171.528 452.717 169.96 452.717 168.04C452.717 166.12 453.325 164.552 454.541 163.336C455.821 162.12 457.389 161.512 459.245 161.512C461.101 161.512 462.637 162.12 463.853 163.336C465.133 164.552 465.773 166.12 465.773 168.04C465.773 169.96 465.133 171.528 463.853 172.744C462.637 173.96 461.101 174.568 459.245 174.568ZM551.394 233.032C548.706 233.032 546.114 232.488 543.618 231.4C541.122 230.248 538.946 228.456 537.09 226.024C535.298 223.592 534.082 220.52 533.442 216.808L541.122 212.392C541.506 214.504 542.466 216.104 544.002 217.192C545.602 218.28 547.298 218.824 549.09 218.824C551.138 218.824 552.994 218.12 554.658 216.712C556.322 215.304 557.154 213.16 557.154 210.28V184.936H569.922V211.816C569.922 216.616 569.026 220.584 567.234 223.72C565.442 226.856 563.138 229.192 560.322 230.728C557.506 232.264 554.53 233.032 551.394 233.032ZM486.018 233.032V218.248H491.106C493.73 218.248 495.682 218.056 496.962 217.672C498.306 217.224 499.202 216.424 499.65 215.272C500.162 214.056 500.418 212.392 500.418 210.28V194.344H513.186V210.28C513.186 215.208 512.354 219.368 510.69 222.76C509.026 226.152 506.562 228.712 503.298 230.44C500.034 232.168 495.97 233.032 491.106 233.032H486.018ZM523.074 233.032C520.386 233.032 517.794 232.488 515.298 231.4C512.802 230.248 510.626 228.456 508.77 226.024C506.978 223.592 505.762 220.52 505.122 216.808L512.802 212.392C513.186 214.504 514.146 216.104 515.682 217.192C517.282 218.28 518.978 218.824 520.77 218.824C522.818 218.824 524.674 218.12 526.338 216.712C528.002 215.304 528.834 213.16 528.834 210.28V189.64H541.602V211.816C541.602 216.616 540.706 220.584 538.914 223.72C537.122 226.856 534.818 229.192 532.002 230.728C529.186 232.264 526.21 233.032 523.074 233.032ZM486.018 233.032C485.378 233.032 484.898 232.36 484.578 231.016C484.258 229.608 484.098 227.784 484.098 225.544C484.098 223.304 484.258 221.544 484.578 220.264C484.898 218.92 485.378 218.248 486.018 218.248V233.032ZM627.201 233.032V151.528H640.065V233.032H627.201ZM582.657 233.032V218.248H640.065V233.032H582.657ZM596.289 233.032V174.472H609.057V233.032H596.289ZM606.369 260.488C602.337 260.488 599.041 259.688 596.481 258.088C593.985 256.552 592.737 254.28 592.737 251.272C592.737 249.16 593.345 247.336 594.561 245.8C595.777 244.328 597.345 243.176 599.265 242.344C601.249 241.512 603.393 241.096 605.697 241.096C607.041 241.096 608.353 241.224 609.633 241.48C610.977 241.8 612.257 242.28 613.473 242.92L610.497 249.352C609.921 249.224 609.217 249.128 608.385 249.064C607.617 249 606.945 248.968 606.369 248.968C604.257 248.968 602.593 249.256 601.377 249.832C600.161 250.408 599.553 251.08 599.553 251.848C599.553 252.616 600.161 253.288 601.377 253.864C602.593 254.504 604.257 254.824 606.369 254.824V260.488ZM590.721 262.696V254.824H614.721V262.696H590.721ZM654.657 233.032V151.528H667.521V233.032H654.657ZM734.113 269.416C728.993 269.416 724.545 268.712 720.769 267.304C717.057 265.96 713.985 264.104 711.553 261.736C709.185 259.368 707.425 256.712 706.273 253.768C705.121 250.824 704.545 247.752 704.545 244.552C704.545 240.968 705.217 237.768 706.561 234.952C707.969 232.2 709.889 229.704 712.321 227.464C714.817 225.16 717.761 223.048 721.153 221.128C724.609 219.144 728.321 217.16 732.289 215.176C735.553 213.512 738.497 212.008 741.121 210.664C743.745 209.32 745.825 208.008 747.361 206.728C748.897 205.384 749.665 204.072 749.665 202.792C749.665 201.64 748.961 200.584 747.553 199.624C746.209 198.664 744.321 197.928 741.889 197.416C739.457 196.84 736.641 196.552 733.441 196.552C731.073 196.552 728.705 196.776 726.337 197.224C723.969 197.672 721.441 198.344 718.753 199.24L715.489 203.656L707.809 200.008L716.545 185.608C719.169 184.776 721.953 184.072 724.897 183.496C727.841 182.856 731.009 182.536 734.401 182.536C739.905 182.536 744.737 183.272 748.897 184.744C753.121 186.216 756.417 188.296 758.785 190.984C761.217 193.608 762.433 196.808 762.433 200.584C762.433 203.656 761.665 206.44 760.129 208.936C758.593 211.432 756.545 213.736 753.985 215.848C751.425 217.896 748.609 219.816 745.537 221.608C742.465 223.4 739.393 225.096 736.321 226.696C733.825 227.976 731.457 229.256 729.217 230.536C726.977 231.752 724.961 233 723.169 234.28C721.377 235.624 719.937 237.032 718.849 238.504C717.825 239.976 717.313 241.608 717.313 243.4C717.313 245.384 718.017 247.24 719.425 248.968C720.897 250.696 722.913 252.04 725.473 253C728.097 254.024 731.201 254.536 734.785 254.536C736.577 254.536 738.433 254.408 740.353 254.152C742.273 253.896 744.161 253.512 746.017 253C747.873 252.552 749.505 252.04 750.913 251.464L756.385 263.944C753.313 265.736 749.857 267.08 746.017 267.976C742.177 268.936 738.209 269.416 734.113 269.416ZM752.929 233.032C745.313 233.032 738.433 231.656 732.289 228.904C726.209 226.152 721.057 222.312 716.833 217.384C712.609 212.392 709.601 206.6 707.809 200.008L717.793 194.344C718.689 199.144 720.481 203.368 723.169 207.016C725.857 210.6 729.249 213.384 733.345 215.368C737.505 217.288 742.177 218.248 747.361 218.248H770.881V233.032H752.929ZM770.881 233.032V218.248C771.521 218.248 772.001 218.92 772.321 220.264C772.641 221.608 772.801 223.368 772.801 225.544C772.801 227.784 772.641 229.608 772.321 231.016C772.001 232.36 771.521 233.032 770.881 233.032ZM770.924 233.032V218.248C773.74 218.248 776.108 217.768 778.028 216.808C780.012 215.784 781.804 214.344 783.404 212.488C785.004 210.568 786.604 208.296 788.204 205.672C789.804 203.24 791.468 200.808 793.196 198.376C794.988 195.944 796.94 193.704 799.052 191.656C801.228 189.608 803.628 187.976 806.252 186.76C808.94 185.544 811.948 184.936 815.276 184.936C818.796 184.936 821.868 185.672 824.492 187.144C827.116 188.616 829.26 190.632 830.924 193.192C832.652 195.688 833.932 198.6 834.764 201.928C835.66 205.192 836.108 208.648 836.108 212.296C836.108 215.752 835.66 219.56 834.764 223.72C833.868 227.816 832.492 231.624 830.636 235.144L818.732 229.288C820.204 226.728 821.324 224.008 822.092 221.128C822.86 218.184 823.244 215.24 823.244 212.296C823.244 207.88 822.54 204.648 821.132 202.6C819.788 200.552 817.804 199.528 815.18 199.528C813.516 199.528 811.852 200.008 810.188 200.968C808.524 201.864 806.764 203.368 804.908 205.48C803.116 207.528 801.1 210.312 798.86 213.832C796.044 218.248 793.292 221.864 790.604 224.68C787.916 227.496 785.004 229.608 781.868 231.016C778.796 232.36 775.148 233.032 770.924 233.032ZM829.964 220.36L830.636 235.144C824.492 235.464 819.18 235.4 814.7 234.952C810.22 234.568 806.284 233.8 802.892 232.648C799.5 231.496 796.492 230.024 793.868 228.232C791.308 226.376 788.876 224.296 786.572 221.992L795.308 212.68C797.548 214.984 800.204 216.776 803.276 218.056C806.348 219.272 810.06 220.04 814.412 220.36C818.764 220.68 823.948 220.68 829.964 220.36ZM770.924 233.032C770.284 233.032 769.804 232.36 769.484 231.016C769.164 229.608 769.004 227.784 769.004 225.544C769.004 223.304 769.164 221.544 769.484 220.264C769.804 218.92 770.284 218.248 770.924 218.248V233.032Z" fill="white"/>
</g>
<defs>
<filter id="filter0_d_1_10641" x="-0.000720978" y="0.000151634" width="983.169" height="319.479" filterUnits="userSpaceOnUse" color-interpolation-filters="sRGB">
<feFlood flood-opacity="0" result="BackgroundImageFix"/>
<feColorMatrix in="SourceAlpha" type="matrix" values="0 0 0 0 0 0 0 0 0 0 0 0 0 0 0 0 0 0 127 0" result="hardAlpha"/>
<feOffset dy="4.76796"/>
<feGaussianBlur stdDeviation="22.6478"/>
<feComposite in2="hardAlpha" operator="out"/>
<feColorMatrix type="matrix" values="0 0 0 0 0 0 0 0 0 0 0 0 0 0 0 0 0 0 0.26 0"/>
<feBlend mode="normal" in2="BackgroundImageFix" result="effect1_dropShadow_1_10641"/>
<feBlend mode="normal" in="SourceGraphic" in2="effect1_dropShadow_1_10641" result="shape"/>
</filter>
<linearGradient id="paint0_linear_1_10641" x1="17.377" y1="143.032" x2="966.377" y2="143.032" gradientUnits="userSpaceOnUse">
<stop stop-color="#94D7E0"/>
<stop offset="0.504808" stop-color="#EFDF7E"/>
<stop offset="1" stop-color="#E43E95"/>
</linearGradient>
</defs>
</svg>
