<svg width="980" height="298" viewBox="0 0 980 298" fill="none" xmlns="http://www.w3.org/2000/svg">
<g filter="url(#filter0_d_1_6579)">
<path d="M139.801 59.992L121.081 127H105.241L92.6654 79.288L79.5134 127L63.7694 127.096L45.7214 59.992H60.1214L71.9294 112.024L85.5614 59.992H100.537L113.401 111.736L125.305 59.992H139.801ZM178.529 73.048C182.561 73.048 186.145 73.944 189.281 75.736C192.417 77.464 194.849 80.056 196.577 83.512C198.369 86.904 199.265 91 199.265 95.8V127H185.825V97.624C185.825 93.4 184.769 90.168 182.657 87.928C180.545 85.624 177.665 84.472 174.017 84.472C170.305 84.472 167.361 85.624 165.185 87.928C163.073 90.168 162.017 93.4 162.017 97.624V127H148.577V55.96H162.017V80.44C163.745 78.136 166.049 76.344 168.929 75.064C171.809 73.72 175.009 73.048 178.529 73.048ZM261.486 99.256C261.486 101.176 261.358 102.904 261.102 104.44H222.222C222.542 108.28 223.886 111.288 226.254 113.464C228.622 115.64 231.534 116.728 234.99 116.728C239.982 116.728 243.534 114.584 245.646 110.296H260.142C258.606 115.416 255.662 119.64 251.31 122.968C246.958 126.232 241.614 127.864 235.278 127.864C230.158 127.864 225.55 126.744 221.454 124.504C217.422 122.2 214.254 118.968 211.95 114.808C209.71 110.648 208.59 105.848 208.59 100.408C208.59 94.904 209.71 90.072 211.95 85.912C214.19 81.752 217.326 78.552 221.358 76.312C225.39 74.072 230.03 72.952 235.278 72.952C240.334 72.952 244.846 74.04 248.814 76.216C252.846 78.392 255.95 81.496 258.126 85.528C260.366 89.496 261.486 94.072 261.486 99.256ZM247.566 95.416C247.502 91.96 246.254 89.208 243.822 87.16C241.39 85.048 238.414 83.992 234.894 83.992C231.566 83.992 228.75 85.016 226.446 87.064C224.206 89.048 222.83 91.832 222.318 95.416H247.566ZM284.736 82.072C286.464 79.256 288.704 77.048 291.456 75.448C294.272 73.848 297.472 73.048 301.056 73.048V87.16H297.504C293.28 87.16 290.08 88.152 287.904 90.136C285.792 92.12 284.736 95.576 284.736 100.504V127H271.296V73.816H284.736V82.072ZM359.548 99.256C359.548 101.176 359.42 102.904 359.164 104.44H320.284C320.604 108.28 321.948 111.288 324.316 113.464C326.684 115.64 329.596 116.728 333.052 116.728C338.044 116.728 341.596 114.584 343.708 110.296H358.204C356.668 115.416 353.724 119.64 349.372 122.968C345.02 126.232 339.676 127.864 333.34 127.864C328.22 127.864 323.612 126.744 319.516 124.504C315.484 122.2 312.316 118.968 310.012 114.808C307.772 110.648 306.652 105.848 306.652 100.408C306.652 94.904 307.772 90.072 310.012 85.912C312.252 81.752 315.388 78.552 319.42 76.312C323.452 74.072 328.092 72.952 333.34 72.952C338.396 72.952 342.908 74.04 346.876 76.216C350.908 78.392 354.012 81.496 356.188 85.528C358.428 89.496 359.548 94.072 359.548 99.256ZM345.628 95.416C345.564 91.96 344.316 89.208 341.884 87.16C339.452 85.048 336.476 83.992 332.956 83.992C329.628 83.992 326.812 85.016 324.508 87.064C322.268 89.048 320.892 91.832 320.38 95.416H345.628ZM205.93 153.992V221H192.49V177.416L174.538 221H164.362L146.314 177.416V221H132.874V153.992H148.138L169.45 203.816L190.762 153.992H205.93ZM268.658 193.256C268.658 195.176 268.53 196.904 268.274 198.44H229.394C229.714 202.28 231.058 205.288 233.426 207.464C235.794 209.64 238.706 210.728 242.162 210.728C247.154 210.728 250.706 208.584 252.818 204.296H267.314C265.778 209.416 262.834 213.64 258.482 216.968C254.13 220.232 248.786 221.864 242.45 221.864C237.33 221.864 232.722 220.744 228.626 218.504C224.594 216.2 221.426 212.968 219.122 208.808C216.882 204.648 215.762 199.848 215.762 194.408C215.762 188.904 216.882 184.072 219.122 179.912C221.362 175.752 224.498 172.552 228.53 170.312C232.562 168.072 237.202 166.952 242.45 166.952C247.506 166.952 252.018 168.04 255.986 170.216C260.018 172.392 263.122 175.496 265.298 179.528C267.538 183.496 268.658 188.072 268.658 193.256ZM254.738 189.416C254.674 185.96 253.426 183.208 250.994 181.16C248.562 179.048 245.586 177.992 242.066 177.992C238.738 177.992 235.922 179.016 233.618 181.064C231.378 183.048 230.002 185.832 229.49 189.416H254.738ZM327.908 193.256C327.908 195.176 327.78 196.904 327.524 198.44H288.644C288.964 202.28 290.308 205.288 292.676 207.464C295.044 209.64 297.956 210.728 301.412 210.728C306.404 210.728 309.956 208.584 312.068 204.296H326.564C325.028 209.416 322.084 213.64 317.732 216.968C313.38 220.232 308.036 221.864 301.7 221.864C296.58 221.864 291.972 220.744 287.876 218.504C283.844 216.2 280.676 212.968 278.372 208.808C276.132 204.648 275.012 199.848 275.012 194.408C275.012 188.904 276.132 184.072 278.372 179.912C280.612 175.752 283.748 172.552 287.78 170.312C291.812 168.072 296.452 166.952 301.7 166.952C306.756 166.952 311.268 168.04 315.236 170.216C319.268 172.392 322.372 175.496 324.548 179.528C326.788 183.496 327.908 188.072 327.908 193.256ZM313.988 189.416C313.924 185.96 312.676 183.208 310.244 181.16C307.812 179.048 304.836 177.992 301.316 177.992C297.988 177.992 295.172 179.016 292.868 181.064C290.628 183.048 289.252 185.832 288.74 189.416H313.988ZM353.366 178.856V204.584C353.366 206.376 353.782 207.688 354.614 208.52C355.51 209.288 356.982 209.672 359.03 209.672H365.27V221H356.822C345.494 221 339.83 215.496 339.83 204.488V178.856H333.494V167.816H339.83V154.664H353.366V167.816H365.27V178.856H353.366ZM395.289 221.864C390.937 221.864 387.033 221.096 383.577 219.56C380.121 217.96 377.369 215.816 375.321 213.128C373.337 210.44 372.249 207.464 372.057 204.2H385.593C385.849 206.248 386.841 207.944 388.569 209.288C390.361 210.632 392.569 211.304 395.193 211.304C397.753 211.304 399.737 210.792 401.145 209.768C402.617 208.744 403.353 207.432 403.353 205.832C403.353 204.104 402.457 202.824 400.665 201.992C398.937 201.096 396.153 200.136 392.312 199.112C388.345 198.152 385.081 197.16 382.521 196.136C380.025 195.112 377.849 193.544 375.993 191.432C374.201 189.32 373.305 186.472 373.305 182.888C373.305 179.944 374.137 177.256 375.801 174.824C377.529 172.392 379.961 170.472 383.097 169.064C386.297 167.656 390.041 166.952 394.329 166.952C400.665 166.952 405.721 168.552 409.497 171.752C413.273 174.888 415.353 179.144 415.737 184.52H402.873C402.681 182.408 401.785 180.744 400.185 179.528C398.649 178.248 396.569 177.608 393.945 177.608C391.513 177.608 389.625 178.056 388.281 178.952C387.001 179.848 386.361 181.096 386.361 182.696C386.361 184.488 387.257 185.864 389.049 186.824C390.841 187.72 393.625 188.648 397.401 189.608C401.241 190.568 404.409 191.56 406.905 192.584C409.401 193.608 411.545 195.208 413.337 197.384C415.193 199.496 416.153 202.312 416.217 205.832C416.217 208.904 415.353 211.656 413.625 214.088C411.961 216.52 409.529 218.44 406.329 219.848C403.193 221.192 399.513 221.864 395.289 221.864ZM473.26 221.672C468.588 221.672 464.364 220.872 460.588 219.272C456.876 217.672 453.932 215.368 451.756 212.36C449.58 209.352 448.46 205.8 448.396 201.704H462.796C462.988 204.456 463.948 206.632 465.676 208.232C467.468 209.832 469.9 210.632 472.972 210.632C476.108 210.632 478.572 209.896 480.364 208.424C482.156 206.888 483.052 204.904 483.052 202.472C483.052 200.488 482.444 198.856 481.228 197.576C480.012 196.296 478.476 195.304 476.62 194.6C474.828 193.832 472.332 193 469.132 192.104C464.78 190.824 461.228 189.576 458.476 188.36C455.788 187.08 453.452 185.192 451.468 182.696C449.548 180.136 448.588 176.744 448.588 172.52C448.588 168.552 449.58 165.096 451.564 162.152C453.548 159.208 456.332 156.968 459.916 155.432C463.5 153.832 467.596 153.032 472.204 153.032C479.116 153.032 484.716 154.728 489.004 158.12C493.356 161.448 495.756 166.12 496.204 172.136H481.42C481.292 169.832 480.3 167.944 478.444 166.472C476.652 164.936 474.252 164.168 471.244 164.168C468.62 164.168 466.508 164.84 464.908 166.184C463.372 167.528 462.604 169.48 462.604 172.04C462.604 173.832 463.18 175.336 464.332 176.552C465.548 177.704 467.02 178.664 468.748 179.432C470.54 180.136 473.036 180.968 476.236 181.928C480.588 183.208 484.14 184.488 486.892 185.768C489.644 187.048 492.012 188.968 493.996 191.528C495.98 194.088 496.972 197.448 496.972 201.608C496.972 205.192 496.044 208.52 494.188 211.592C492.332 214.664 489.612 217.128 486.028 218.984C482.444 220.776 478.188 221.672 473.26 221.672ZM524.272 178.856V204.584C524.272 206.376 524.688 207.688 525.52 208.52C526.416 209.288 527.888 209.672 529.936 209.672H536.176V221H527.728C516.4 221 510.736 215.496 510.736 204.488V178.856H504.4V167.816H510.736V154.664H524.272V167.816H536.176V178.856H524.272ZM559.283 176.072C561.011 173.256 563.251 171.048 566.003 169.448C568.819 167.848 572.019 167.048 575.603 167.048V181.16H572.051C567.827 181.16 564.627 182.152 562.451 184.136C560.339 186.12 559.283 189.576 559.283 194.504V221H545.843V167.816H559.283V176.072ZM581.199 194.216C581.199 188.84 582.255 184.072 584.367 179.912C586.543 175.752 589.455 172.552 593.103 170.312C596.815 168.072 600.943 166.952 605.487 166.952C609.455 166.952 612.911 167.752 615.855 169.352C618.863 170.952 621.263 172.968 623.055 175.4V167.816H636.591V221H623.055V213.224C621.327 215.72 618.927 217.8 615.855 219.464C612.847 221.064 609.359 221.864 605.391 221.864C600.911 221.864 596.815 220.712 593.103 218.408C589.455 216.104 586.543 212.872 584.367 208.712C582.255 204.488 581.199 199.656 581.199 194.216ZM623.055 194.408C623.055 191.144 622.415 188.36 621.135 186.056C619.855 183.688 618.127 181.896 615.951 180.68C613.775 179.4 611.439 178.76 608.943 178.76C606.447 178.76 604.143 179.368 602.031 180.584C599.919 181.8 598.191 183.592 596.847 185.96C595.567 188.264 594.927 191.016 594.927 194.216C594.927 197.416 595.567 200.232 596.847 202.664C598.191 205.032 599.919 206.856 602.031 208.136C604.207 209.416 606.511 210.056 608.943 210.056C611.439 210.056 613.775 209.448 615.951 208.232C618.127 206.952 619.855 205.16 621.135 202.856C622.415 200.488 623.055 197.672 623.055 194.408ZM665.366 178.856V204.584C665.366 206.376 665.782 207.688 666.614 208.52C667.51 209.288 668.982 209.672 671.03 209.672H677.27V221H668.822C657.494 221 651.83 215.496 651.83 204.488V178.856H645.494V167.816H651.83V154.664H665.366V167.816H677.27V178.856H665.366ZM736.377 193.256C736.377 195.176 736.249 196.904 735.993 198.44H697.113C697.433 202.28 698.777 205.288 701.145 207.464C703.513 209.64 706.425 210.728 709.881 210.728C714.873 210.728 718.425 208.584 720.537 204.296H735.033C733.497 209.416 730.553 213.64 726.201 216.968C721.849 220.232 716.505 221.864 710.169 221.864C705.049 221.864 700.441 220.744 696.345 218.504C692.313 216.2 689.145 212.968 686.841 208.808C684.601 204.648 683.48 199.848 683.48 194.408C683.48 188.904 684.601 184.072 686.841 179.912C689.081 175.752 692.217 172.552 696.249 170.312C700.281 168.072 704.921 166.952 710.169 166.952C715.225 166.952 719.737 168.04 723.705 170.216C727.737 172.392 730.841 175.496 733.017 179.528C735.257 183.496 736.377 188.072 736.377 193.256ZM722.457 189.416C722.393 185.96 721.145 183.208 718.713 181.16C716.281 179.048 713.305 177.992 709.785 177.992C706.457 177.992 703.641 179.016 701.337 181.064C699.097 183.048 697.721 185.832 697.209 189.416H722.457ZM767.019 166.952C770.987 166.952 774.475 167.752 777.483 169.352C780.491 170.888 782.859 172.904 784.587 175.4V167.816H798.123V221.384C798.123 226.312 797.131 230.696 795.147 234.536C793.163 238.44 790.187 241.512 786.219 243.752C782.251 246.056 777.451 247.208 771.819 247.208C764.267 247.208 758.059 245.448 753.195 241.928C748.395 238.408 745.675 233.608 745.035 227.528H758.379C759.083 229.96 760.587 231.88 762.891 233.288C765.259 234.76 768.107 235.496 771.435 235.496C775.339 235.496 778.507 234.312 780.939 231.944C783.371 229.64 784.587 226.12 784.587 221.384V213.128C782.859 215.624 780.459 217.704 777.387 219.368C774.379 221.032 770.923 221.864 767.019 221.864C762.539 221.864 758.443 220.712 754.731 218.408C751.019 216.104 748.075 212.872 745.898 208.712C743.786 204.488 742.73 199.656 742.73 194.216C742.73 188.84 743.786 184.072 745.898 179.912C748.075 175.752 750.987 172.552 754.635 170.312C758.347 168.072 762.475 166.952 767.019 166.952ZM784.587 194.408C784.587 191.144 783.947 188.36 782.667 186.056C781.387 183.688 779.659 181.896 777.483 180.68C775.307 179.4 772.971 178.76 770.475 178.76C767.979 178.76 765.675 179.368 763.562 180.584C761.451 181.8 759.723 183.592 758.379 185.96C757.099 188.264 756.459 191.016 756.459 194.216C756.459 197.416 757.099 200.232 758.379 202.664C759.723 205.032 761.451 206.856 763.562 208.136C765.739 209.416 768.043 210.056 770.475 210.056C772.971 210.056 775.307 209.448 777.483 208.232C779.659 206.952 781.387 205.16 782.667 202.856C783.947 200.488 784.587 197.672 784.587 194.408ZM862.129 167.816L829.201 246.152H814.897L826.417 219.656L805.105 167.816H820.177L833.905 204.968L847.825 167.816H862.129Z" fill="white"/>
<path d="M444.796 109.816C446.78 109.816 448.188 110.36 449.02 111.448C449.852 112.472 450.268 113.56 450.268 114.712C450.268 116.312 449.468 118.008 447.868 119.8C446.268 121.592 444.188 123.256 441.628 124.792C439.132 126.264 436.444 127.48 433.564 128.44C430.684 129.4 427.932 129.88 425.308 129.88C421.404 129.88 417.66 128.824 414.076 126.712C410.556 124.536 407.676 121.496 405.436 117.592C403.26 113.688 402.172 109.048 402.172 103.672C402.172 99.256 403.004 94.872 404.668 90.52C406.396 86.168 408.668 81.976 411.484 77.944C414.364 73.912 417.5 70.168 420.892 66.712C424.348 63.256 427.804 60.248 431.26 57.688C434.78 55.128 438.012 53.144 440.956 51.736C443.9 50.264 446.268 49.528 448.06 49.528C450.3 49.528 451.964 50.104 453.052 51.256C454.204 52.344 454.78 53.88 454.78 55.864C454.78 57.464 454.46 58.712 453.82 59.608C453.244 60.44 452.316 61.176 451.036 61.816C446.94 63.928 442.78 66.488 438.556 69.496C434.396 72.504 430.588 75.832 427.132 79.48C423.676 83.064 420.892 86.84 418.78 90.808C416.668 94.776 415.612 98.808 415.612 102.904C415.612 107.384 416.508 110.776 418.3 113.08C420.092 115.384 422.524 116.536 425.596 116.536C427.132 116.536 428.796 116.216 430.588 115.576C432.38 114.872 434.14 114.072 435.868 113.176C437.66 112.28 439.324 111.512 440.86 110.872C442.46 110.168 443.772 109.816 444.796 109.816ZM469.841 131.224C468.241 131.224 466.865 130.648 465.713 129.496C464.625 128.344 464.081 126.68 464.081 124.504C464.081 123.544 464.209 121.976 464.465 119.8C464.785 117.56 465.169 115 465.617 112.12C466.129 109.24 466.609 106.232 467.057 103.096C467.569 99.96 467.985 96.984 468.305 94.168C468.689 91.352 468.945 88.952 469.073 86.968C469.201 84.536 469.841 82.808 470.993 81.784C472.145 80.696 473.521 80.152 475.121 80.152C476.401 80.152 477.553 80.472 478.577 81.112C479.665 81.688 480.337 82.936 480.593 84.856C480.913 86.712 480.945 89.4 480.689 92.92C483.505 87.8 486.353 83.224 489.233 79.192C492.177 75.16 495.249 71.96 498.449 69.592C503.761 65.56 508.561 63.544 512.849 63.544C515.281 63.544 516.881 64.088 517.649 65.176C518.417 66.264 518.801 67.384 518.801 68.536C518.801 69.304 518.609 70.008 518.225 70.648C517.905 71.288 517.201 71.96 516.113 72.664C515.025 73.368 513.361 74.296 511.121 75.448C508.113 76.984 505.137 79 502.193 81.496C499.313 83.992 496.433 87.192 493.553 91.096C490.673 95 487.761 99.8 484.817 105.496C481.873 111.192 478.833 117.976 475.697 125.848C475.121 128.024 474.289 129.464 473.201 130.168C472.177 130.872 471.057 131.224 469.841 131.224ZM526.203 130.264C522.235 130.264 519.035 128.888 516.603 126.136C514.171 123.32 512.955 118.808 512.955 112.6C512.955 108.632 513.403 104.664 514.299 100.696C515.259 96.664 516.571 92.856 518.235 89.272C519.963 85.624 521.947 82.392 524.187 79.576C526.491 76.76 529.019 74.552 531.771 72.952C534.523 71.288 537.371 70.456 540.315 70.456C545.307 70.456 549.211 71.8 552.027 74.488C554.843 77.176 556.251 80.6 556.251 84.76C556.251 87.96 555.355 90.872 553.563 93.496C551.835 96.056 549.467 98.36 546.459 100.408C543.451 102.456 540.091 104.312 536.379 105.976C532.667 107.64 528.859 109.144 524.955 110.488C524.635 112.792 524.475 114.84 524.475 116.632C524.475 117.72 525.083 118.264 526.299 118.264C529.179 118.264 532.251 117.816 535.515 116.92C538.843 115.96 542.203 114.744 545.595 113.272C548.987 111.736 552.251 110.168 555.387 108.568C558.523 106.904 561.371 105.336 563.931 103.864C566.555 102.328 568.699 101.112 570.363 100.216C572.091 99.256 573.211 98.776 573.723 98.776C575.131 98.776 576.155 99.192 576.795 100.024C577.435 100.856 577.755 101.752 577.755 102.712C577.755 103.16 576.891 104.152 575.163 105.688C573.499 107.224 571.195 109.048 568.251 111.16C565.371 113.208 562.107 115.352 558.459 117.592C554.875 119.768 551.131 121.848 547.227 123.832C543.387 125.752 539.643 127.288 535.995 128.44C532.411 129.656 529.147 130.264 526.203 130.264ZM526.587 101.944C529.211 100.408 531.803 98.808 534.363 97.144C536.987 95.416 539.163 93.496 540.891 91.384C542.619 89.208 543.483 86.68 543.483 83.8C543.483 82.968 543.259 82.424 542.811 82.168C542.363 81.848 541.723 81.688 540.891 81.688C538.651 81.688 536.603 82.68 534.747 84.664C532.955 86.648 531.355 89.208 529.947 92.344C528.603 95.416 527.483 98.616 526.587 101.944ZM576.659 130.648C574.611 130.648 572.755 130.072 571.091 128.92C569.427 127.832 568.115 126.392 567.155 124.6C566.195 122.744 565.715 120.76 565.715 118.648C565.715 114.68 566.579 110.808 568.307 107.032C570.099 103.256 572.435 99.672 575.315 96.28C578.195 92.888 581.331 89.784 584.723 86.968C588.179 84.088 591.603 81.624 594.995 79.576C598.451 77.528 601.587 75.928 604.403 74.776C607.283 73.624 609.523 73.048 611.123 73.048C612.979 73.048 614.483 73.464 615.635 74.296C616.851 75.064 617.459 76.28 617.459 77.944C617.459 78.456 617.331 78.872 617.075 79.192C617.907 79.384 618.579 79.864 619.091 80.632C619.603 81.4 619.859 82.552 619.859 84.088C619.859 84.728 619.699 86.392 619.379 89.08C619.059 91.768 618.707 95.032 618.323 98.872C618.003 102.712 617.843 106.712 617.843 110.872C617.843 111.512 617.939 112.088 618.131 112.6C618.323 113.048 618.739 113.272 619.379 113.272C621.939 113.272 624.531 112.76 627.155 111.736C629.843 110.648 632.435 109.336 634.931 107.8C637.491 106.2 639.795 104.632 641.843 103.096C643.955 101.496 645.715 100.184 647.123 99.16C648.595 98.072 649.555 97.528 650.003 97.528C652.179 97.528 653.267 98.616 653.267 100.792C653.267 101.368 652.563 102.584 651.155 104.44C649.811 106.232 647.955 108.312 645.587 110.68C643.219 112.984 640.563 115.288 637.619 117.592C634.739 119.832 631.731 121.688 628.595 123.16C625.523 124.632 622.547 125.368 619.667 125.368C616.147 125.368 613.459 124.536 611.603 122.872C609.811 121.208 608.531 118.968 607.763 116.152C607.059 113.272 606.675 110.04 606.611 106.456C603.347 111.128 599.955 115.288 596.435 118.936C592.979 122.52 589.555 125.368 586.163 127.48C582.771 129.592 579.603 130.648 576.659 130.648ZM610.643 82.552C604.371 85.56 598.739 89.016 593.747 92.92C588.755 96.76 584.787 100.792 581.843 105.016C578.963 109.24 577.523 113.304 577.523 117.208C577.523 118.296 578.035 118.84 579.059 118.84C580.275 118.84 581.875 118.136 583.859 116.728C585.907 115.32 588.115 113.464 590.483 111.16C592.851 108.792 595.219 106.168 597.587 103.288C599.955 100.344 602.163 97.336 604.211 94.264C606.259 91.192 607.891 88.248 609.107 85.432C609.555 84.408 610.067 83.448 610.643 82.552ZM714.317 78.616C714.317 79.384 714.061 80.056 713.549 80.632C713.037 81.208 712.397 81.656 711.629 81.976C710.541 82.424 708.653 83 705.965 83.704C703.277 84.408 700.013 85.208 696.173 86.104C692.397 87 688.333 87.928 683.981 88.888C679.629 89.784 675.277 90.648 670.925 91.48C669.261 97.624 667.565 103.96 665.837 110.488C664.109 116.952 662.381 123.32 660.653 129.592C660.013 131.832 659.245 133.528 658.349 134.68C657.453 135.896 655.917 136.504 653.741 136.504C651.373 136.504 649.773 135.736 648.941 134.2C648.173 132.728 648.077 130.712 648.653 128.152C650.317 121.176 651.853 114.68 653.261 108.664C654.733 102.648 655.917 97.784 656.813 94.072C652.973 94.712 649.613 95.224 646.733 95.608C643.853 95.928 641.805 96.056 640.589 95.992C639.245 95.864 638.125 95.32 637.229 94.36C636.333 93.4 635.917 92.216 635.981 90.808C636.109 89.528 636.685 88.44 637.709 87.544C638.733 86.584 639.949 86.008 641.357 85.816C643.341 85.624 645.901 85.336 649.037 84.952C652.173 84.568 655.629 84.12 659.405 83.608C660.237 80.344 661.197 76.984 662.285 73.528C663.373 70.008 664.493 66.648 665.645 63.448C666.861 60.184 668.013 57.336 669.101 54.904C670.189 52.472 671.181 50.712 672.077 49.624C672.781 48.792 673.645 48.152 674.669 47.704C675.757 47.256 676.813 47.032 677.837 47.032C679.181 47.032 680.269 47.512 681.101 48.472C681.933 49.432 682.349 50.552 682.349 51.832C682.349 52.344 682.317 52.888 682.253 53.464C682.189 53.976 682.061 54.488 681.869 55C680.653 58.2 679.341 62.072 677.933 66.616C676.589 71.16 675.181 76.152 673.709 81.592C678.509 80.888 683.213 80.184 687.821 79.48C692.493 78.712 696.717 78.008 700.493 77.368C704.333 76.664 707.405 76.056 709.709 75.544C710.989 75.096 712.077 75.192 712.973 75.832C713.869 76.408 714.317 77.336 714.317 78.616ZM702.752 126.44C700.96 126.44 699.36 125.832 697.952 124.616C696.608 123.4 695.936 121.416 695.936 118.664C695.936 117.192 696.128 115.112 696.512 112.424C696.96 109.736 697.536 106.824 698.24 103.688C698.944 100.488 699.712 97.32 700.544 94.184C701.44 91.048 702.304 88.264 703.136 85.832C703.968 83.336 704.704 81.48 705.344 80.264C706.176 78.792 706.944 77.896 707.648 77.576C708.416 77.192 709.152 77 709.856 77C711.136 77 712.32 77.384 713.408 78.152C714.56 78.92 715.136 80.616 715.136 83.24C715.136 84.264 714.944 85.928 714.56 88.232C714.176 90.472 713.696 93.096 713.12 96.104C712.544 99.112 711.904 102.216 711.2 105.416C710.56 108.616 709.92 111.656 709.28 114.536C708.704 117.352 708.224 119.72 707.84 121.64C707.52 123.24 706.848 124.424 705.824 125.192C704.864 126.024 703.84 126.44 702.752 126.44ZM713.792 67.496C711.68 67.496 709.728 66.888 707.936 65.672C706.144 64.392 705.248 62.44 705.248 59.816C705.248 57.64 705.792 55.88 706.88 54.536C707.968 53.192 709.248 52.232 710.72 51.656C712.256 51.016 713.6 50.696 714.752 50.696C715.904 50.696 717.184 50.952 718.592 51.464C720 51.912 721.216 52.776 722.24 54.056C723.328 55.272 723.872 57.032 723.872 59.336C723.872 60.872 723.328 62.28 722.24 63.56C721.152 64.776 719.808 65.736 718.208 66.44C716.672 67.144 715.2 67.496 713.792 67.496ZM742.553 126.904C740.889 126.904 739.417 126.104 738.137 124.504C736.921 122.904 735.993 120.44 735.353 117.112C734.841 114.296 734.393 111.096 734.009 107.512C733.625 103.928 733.273 100.408 732.953 96.952C732.697 93.432 732.505 90.36 732.377 87.736C732.249 85.112 732.185 83.32 732.185 82.36C732.185 78.904 732.793 76.056 734.009 73.816C735.225 71.512 737.561 70.36 741.017 70.36C742.489 70.36 743.609 71 744.377 72.28C745.145 73.496 745.529 75.192 745.529 77.368C745.529 78.712 745.529 80.408 745.529 82.456C745.593 84.44 745.657 86.68 745.721 89.176C745.785 91.928 745.849 94.904 745.913 98.104C746.041 101.24 746.105 104.376 746.105 107.512C748.345 103.992 750.745 100.248 753.305 96.28C755.865 92.248 758.361 88.344 760.793 84.568C763.289 80.792 765.529 77.464 767.513 74.584C769.497 71.64 771.001 69.56 772.025 68.344C772.921 67.256 774.009 66.328 775.289 65.56C776.569 64.728 777.913 64.312 779.321 64.312C780.857 64.312 782.137 64.92 783.161 66.136C784.185 67.352 784.697 68.76 784.697 70.36C784.697 71.576 784.441 72.728 783.929 73.816C783.481 74.904 782.905 75.928 782.201 76.888C780.281 79.576 778.009 82.712 775.385 86.296C772.825 89.88 770.137 93.656 767.321 97.624C764.505 101.528 761.753 105.304 759.065 108.952C756.441 112.6 754.105 115.832 752.057 118.648C750.393 121.016 749.049 122.808 748.025 124.024C747.001 125.176 746.073 125.944 745.241 126.328C744.473 126.712 743.577 126.904 742.553 126.904ZM809.967 131.224C806.447 131.224 803.311 130.264 800.559 128.344C797.807 126.488 795.631 123.864 794.031 120.472C792.495 117.08 791.727 113.112 791.727 108.568C791.727 103.704 792.303 98.968 793.455 94.36C794.607 89.688 796.079 85.496 797.871 81.784C799.663 78.008 801.455 75.032 803.247 72.856C805.103 70.616 806.703 69.496 808.047 69.496C809.455 69.496 810.607 69.912 811.503 70.744C812.463 71.576 812.943 72.824 812.943 74.488C812.943 74.744 812.655 75.672 812.079 77.272C811.567 78.808 810.895 80.792 810.063 83.224C809.231 85.592 808.399 88.248 807.567 91.192C806.735 94.072 806.031 97.016 805.455 100.024C804.943 103.032 804.687 105.912 804.687 108.664C804.687 111.992 805.199 114.648 806.223 116.632C807.247 118.616 809.455 119.608 812.847 119.608C816.303 119.608 819.663 118.616 822.927 116.632C826.255 114.648 829.455 111.992 832.527 108.664C835.599 105.272 838.543 101.496 841.359 97.336C838.031 97.592 834.895 97.72 831.951 97.72C829.967 97.72 828.527 97.528 827.631 97.144C826.735 96.696 826.159 96.12 825.903 95.416C825.711 94.712 825.615 93.88 825.615 92.92C825.615 91.576 826.223 90.36 827.439 89.272C828.655 88.184 829.999 87.608 831.471 87.544C834.223 87.352 837.007 87.128 839.823 86.872C842.703 86.616 845.551 86.328 848.367 86.008C850.479 82.232 852.431 78.488 854.223 74.776C856.079 71 857.775 67.448 859.311 64.12C860.783 59.96 862.351 56.12 864.015 52.6C865.743 49.016 867.407 46.136 869.007 43.96C870.607 41.784 872.111 40.696 873.519 40.696C875.183 40.696 876.431 41.144 877.263 42.04C878.159 42.936 878.607 44.12 878.607 45.592C878.607 46.04 878.287 47.352 877.647 49.528C877.007 51.704 876.111 54.52 874.959 57.976C873.871 61.432 872.623 65.336 871.215 69.688C869.871 73.976 868.431 78.52 866.895 83.32C872.975 82.296 878.511 81.304 883.503 80.344C888.559 79.384 892.687 78.584 895.887 77.944C899.087 77.304 901.007 76.984 901.647 76.984C902.927 76.984 903.983 77.592 904.815 78.808C905.647 79.96 906.063 81.08 906.063 82.168C906.063 82.808 904.879 83.64 902.511 84.664C900.207 85.688 897.039 86.808 893.007 88.024C889.039 89.176 884.495 90.36 879.375 91.576C874.319 92.728 869.007 93.752 863.439 94.648C861.903 99.704 860.431 104.664 859.023 109.528C857.679 114.328 856.527 118.776 855.567 122.872C855.119 124.664 854.383 126.04 853.359 127C852.399 127.896 851.087 128.344 849.423 128.344C847.695 128.344 846.415 127.928 845.583 127.096C844.751 126.328 844.335 124.92 844.335 122.872C844.335 122.68 844.527 121.624 844.911 119.704C845.359 117.72 845.903 115.288 846.543 112.408C847.247 109.464 847.919 106.456 848.559 103.384C844.783 108.632 840.783 113.368 836.559 117.592C832.335 121.816 827.983 125.144 823.503 127.576C819.023 130.008 814.511 131.224 809.967 131.224ZM810.255 62.872C808.143 62.872 806.415 62.232 805.071 60.952C803.727 59.608 803.055 58.04 803.055 56.248C803.055 54.072 803.855 52.216 805.455 50.68C807.119 49.144 809.071 48.376 811.311 48.376C813.807 48.376 815.695 49.048 816.975 50.392C818.319 51.736 818.991 53.528 818.991 55.768C818.991 57.368 818.159 58.968 816.495 60.568C814.831 62.104 812.751 62.872 810.255 62.872ZM900.64 160.4C897.056 160.4 893.792 160.176 890.848 159.728C887.904 159.344 885.024 158.704 882.208 157.808C879.392 156.912 876.352 155.728 873.088 154.256C871.744 153.616 870.624 152.944 869.728 152.24C868.832 151.536 868.384 150.48 868.384 149.072C868.384 147.024 869.024 145.456 870.304 144.368C871.52 143.344 873.216 142.832 875.392 142.832C876.544 142.832 878.016 143.216 879.808 143.984C881.6 144.816 883.648 145.744 885.952 146.768C888.32 147.856 890.944 148.784 893.824 149.552C896.704 150.384 899.808 150.8 903.136 150.8C906.528 150.8 909.696 149.392 912.64 146.576C915.584 143.76 917.952 139.792 919.744 134.672C921.6 129.616 922.528 123.632 922.528 116.72C922.528 115.12 922.496 113.392 922.432 111.536C922.368 109.616 922.304 107.6 922.24 105.488C919.936 109.84 917.44 113.904 914.752 117.68C912.064 121.456 909.28 124.528 906.4 126.896C903.584 129.2 900.736 130.352 897.856 130.352C894.336 130.352 891.776 129.52 890.176 127.856C888.64 126.128 887.872 123.408 887.872 119.696C887.872 116.56 888.096 113.136 888.544 109.424C889.056 105.648 889.728 101.84 890.56 98C891.392 94.16 892.352 90.512 893.44 87.056C894.592 83.536 895.808 80.496 897.088 77.936C898.048 76.08 899.52 75.152 901.504 75.152C902.784 75.152 904.064 75.76 905.344 76.976C906.688 78.192 907.36 79.824 907.36 81.872C907.36 83.024 907.072 84.688 906.496 86.864C905.92 89.04 905.216 91.504 904.384 94.256C903.616 96.944 902.816 99.792 901.984 102.8C901.152 105.744 900.448 108.656 899.872 111.536C899.296 114.352 899.008 116.912 899.008 119.216C899.008 119.472 899.2 119.6 899.584 119.6C900.352 119.6 901.376 118.96 902.656 117.68C904 116.336 905.472 114.608 907.072 112.496C908.736 110.32 910.4 107.952 912.064 105.392C913.792 102.768 915.456 100.176 917.056 97.616C918.656 95.056 920.096 92.72 921.376 90.608C921.184 89.584 921.056 88.688 920.992 87.92C920.992 87.088 920.992 86.384 920.992 85.808C920.992 83.184 921.44 81.008 922.336 79.28C923.296 77.552 925.152 76.688 927.904 76.688C929.696 76.688 931.072 77.36 932.032 78.704C932.992 79.984 933.472 81.808 933.472 84.176C933.472 85.2 933.312 86.384 932.992 87.728C932.672 89.008 932.032 91.056 931.072 93.872L932.128 90.896C932.704 96.656 933.184 101.776 933.568 106.256C934.016 110.736 934.24 115.184 934.24 119.6C934.24 127.92 932.832 135.12 930.016 141.2C927.264 147.344 923.36 152.08 918.304 155.408C913.312 158.736 907.424 160.4 900.64 160.4Z" fill="url(#paint0_linear_1_6579)"/>
</g>
<defs>
<filter id="filter0_d_1_6579" x="0.42506" y="0.167632" width="979.111" height="297.103" filterUnits="userSpaceOnUse" color-interpolation-filters="sRGB">
<feFlood flood-opacity="0" result="BackgroundImageFix"/>
<feColorMatrix in="SourceAlpha" type="matrix" values="0 0 0 0 0 0 0 0 0 0 0 0 0 0 0 0 0 0 127 0" result="hardAlpha"/>
<feOffset dy="4.76796"/>
<feGaussianBlur stdDeviation="22.6478"/>
<feComposite in2="hardAlpha" operator="out"/>
<feColorMatrix type="matrix" values="0 0 0 0 0 0 0 0 0 0 0 0 0 0 0 0 0 0 0.26 0"/>
<feBlend mode="normal" in2="BackgroundImageFix" result="effect1_dropShadow_1_6579"/>
<feBlend mode="normal" in="SourceGraphic" in2="effect1_dropShadow_1_6579" result="shape"/>
</filter>
<linearGradient id="paint0_linear_1_6579" x1="400.5" y1="140.5" x2="928.5" y2="140.5" gradientUnits="userSpaceOnUse">
<stop stop-color="#94D7E0"/>
<stop offset="0.504808" stop-color="#EFDF7E"/>
<stop offset="1" stop-color="#E43E95"/>
</linearGradient>
</defs>
</svg>
