<svg width="20" height="20" viewBox="0 0 20 20" fill="none" xmlns="http://www.w3.org/2000/svg">
<path fill-rule="evenodd" clip-rule="evenodd" d="M10 1.66667C5.41667 1.66667 1.66667 5.41667 1.66667 10C1.66667 13.6667 4.08333 16.75 7.5 17.9167C7.91667 17.9167 8.08333 17.6667 8.08333 17.4167C8.08333 17.1667 8.08333 16.5833 8.08333 15.75C5.75 16.25 5.25 14.6667 5.25 14.6667C4.91667 13.75 4.33333 13.5 4.33333 13.5C3.58333 13 4.41667 13 4.41667 13C5.25 13.0833 5.66667 13.8333 5.66667 13.8333C6.41667 15.0833 7.58333 14.6667 8.08333 14.4167C8.16667 13.8333 8.41667 13.4167 8.66667 13.1667C6.83333 13 4.91667 12.25 4.91667 9.08333C4.91667 8.25 5.16667 7.5 5.66667 6.91667C5.58333 6.75 5.25 5.83333 5.75 4.66667C5.75 4.66667 6.5 4.41667 8.08333 5.5C8.75 5.33333 9.41667 5.25 10.0833 5.25C10.75 5.25 11.4167 5.33333 12.0833 5.5C13.6667 4.41667 14.4167 4.66667 14.4167 4.66667C14.9167 5.83333 14.5833 6.75 14.5 6.91667C15 7.5 15.25 8.25 15.25 9.08333C15.25 12.25 13.3333 12.9167 11.5 13.1667C11.8333 13.5 12.0833 14.0833 12.0833 15C12.0833 16.25 12.0833 17.25 12.0833 17.5C12.0833 17.75 12.25 18 12.6667 17.9167C16.0833 16.75 18.5 13.6667 18.5 10C18.3333 5.41667 14.5833 1.66667 10 1.66667Z" fill="white"/>
</svg>
