<svg width="19" height="19" viewBox="0 0 19 19" fill="none" xmlns="http://www.w3.org/2000/svg">
<path d="M14.1211 5.25244H14.123M12.6211 9.75244C12.6211 11.4093 11.2779 12.7524 9.62109 12.7524C7.96424 12.7524 6.62109 11.4093 6.62109 9.75244C6.62109 8.09559 7.96424 6.75244 9.62109 6.75244C11.2779 6.75244 12.6211 8.09559 12.6211 9.75244ZM9.62109 18.2524V18.2524C11.9482 18.2524 13.1117 18.2524 14.0497 17.934C15.8161 17.3344 17.2031 15.9474 17.8027 14.1811C18.1211 13.243 18.1211 12.0795 18.1211 9.75244V9.75244C18.1211 7.42537 18.1211 6.26184 17.8027 5.3238C17.2031 3.55746 15.8161 2.17045 14.0497 1.57086C13.1117 1.25244 11.9482 1.25244 9.62109 1.25244V1.25244C7.29402 1.25244 6.13049 1.25244 5.19246 1.57086C3.42611 2.17045 2.03911 3.55746 1.43951 5.3238C1.12109 6.26184 1.12109 7.42537 1.12109 9.75244V9.75244C1.12109 12.0795 1.12109 13.243 1.43951 14.1811C2.03911 15.9474 3.42611 17.3344 5.19246 17.934C6.13049 18.2524 7.29402 18.2524 9.62109 18.2524Z" stroke="#F7F9FC" stroke-width="1.5" stroke-linecap="round" stroke-linejoin="round"/>
</svg>
