<svg width="20" height="19" viewBox="0 0 20 19" fill="none" xmlns="http://www.w3.org/2000/svg">
<path d="M6.125 5.75244H6.12695M6.125 8.75244V13.7524M9.125 7.75244V9.75277M9.125 9.75277V13.7524M9.125 9.75277C9.125 9.25276 10.0419 7.96949 11.125 7.75287C12.5057 7.47673 14.125 8.25283 14.125 9.75277V13.7528M9.625 18.2524H10.625C14.3962 18.2524 16.2819 18.2524 17.4534 17.0809C18.625 15.9093 18.625 14.0237 18.625 10.2524V9.25244C18.625 5.48121 18.625 3.59559 17.4534 2.42401C16.2819 1.25244 14.3962 1.25244 10.625 1.25244H9.625C5.85376 1.25244 3.96815 1.25244 2.79657 2.42401C1.625 3.59559 1.625 5.48121 1.625 9.25244V10.2524C1.625 14.0237 1.625 15.9093 2.79657 17.0809C3.96815 18.2524 5.85376 18.2524 9.625 18.2524Z" stroke="#F7F9FC" stroke-width="1.5" stroke-linecap="round"/>
</svg>
