<svg width="20" height="20" viewBox="0 0 20 20" fill="none" xmlns="http://www.w3.org/2000/svg">
<path d="M8.33333 10.8333C8.69167 11.3118 9.14451 11.7077 9.66379 11.9987C10.1831 12.2898 10.7573 12.4697 11.3495 12.5262C11.9417 12.5827 12.5388 12.5145 13.1033 12.3258C13.6677 12.1372 14.1869 11.8319 14.6292 11.4292L17.1292 8.92917C17.9266 8.10185 18.3687 7.00079 18.3589 5.85699C18.3491 4.71318 17.8881 3.61986 17.0766 2.80632C16.2652 1.99279 15.1731 1.52923 14.0293 1.51703C12.8855 1.50483 11.7833 1.94454 10.9542 2.74L9.65417 4.0325M11.6667 9.16667C11.3083 8.68824 10.8555 8.29234 10.3362 8.00127C9.81692 7.71019 9.24273 7.53028 8.65053 7.47378C8.05833 7.41728 7.4612 7.48553 6.89674 7.67415C6.33227 7.86277 5.81314 8.16806 5.37083 8.57083L2.87083 11.0708C2.07338 11.8981 1.63127 12.9992 1.64108 14.143C1.65088 15.2868 2.11185 16.3801 2.92337 17.1937C3.7349 18.0072 4.82694 18.4708 5.97074 18.483C7.11454 18.4952 8.21673 18.0555 9.04583 17.26L10.3375 15.9675" stroke="white" stroke-width="1.5" stroke-linecap="round" stroke-linejoin="round"/>
</svg>
