<svg width="20" height="20" viewBox="0 0 20 20" fill="none" xmlns="http://www.w3.org/2000/svg">
<path d="M10 1.66667C5.41667 1.66667 1.66667 5.41667 1.66667 10C1.66667 13.5 3.83333 16.5 6.91667 17.75C6.83333 17.0833 6.75 16 6.91667 15.25C7.08333 14.5833 8 10.6667 8 10.6667C8 10.6667 7.75 10.0833 7.75 9.25C7.75 8 8.5 7.08333 9.41667 7.08333C10.1667 7.08333 10.5833 7.66667 10.5833 8.33333C10.5833 9.08333 10.0833 10.1667 9.83333 11.1667C9.66667 12 10.25 12.6667 11.0833 12.6667C12.5833 12.6667 13.75 11.0833 13.75 8.83333C13.75 6.83333 12.3333 5.41667 10.0833 5.41667C7.5 5.41667 6 7.33333 6 9.33333C6 10.0833 6.25 10.8333 6.58333 11.25C6.66667 11.3333 6.66667 11.4167 6.58333 11.5833C6.5 11.8333 6.33333 12.5 6.33333 12.6667C6.25 12.9167 6.08333 13 5.83333 12.8333C4.75 12.3333 4.08333 10.8333 4.08333 9.25C4.08333 6.58333 6.08333 4.16667 10.3333 4.16667C13.75 4.16667 16.4167 6.58333 16.4167 9.75C16.4167 13.0833 14.3333 15.75 11.4167 15.75C10.5 15.75 9.58333 15.25 9.25 14.6667C9.25 14.6667 8.75 16.5833 8.66667 16.9167C8.41667 17.6667 7.91667 18.5833 7.5 19.1667C8.33333 19.4167 9.16667 19.5 10 19.5C14.5833 19.5 18.3333 15.75 18.3333 11.1667C18.3333 5.41667 14.5833 1.66667 10 1.66667Z" fill="white"/>
</svg>
