<svg width="20" height="20" viewBox="0 0 20 20" fill="none" xmlns="http://www.w3.org/2000/svg">
<path d="M17.9167 14.1667C14.5833 13.5833 13.3333 10 13.25 9.66667C13.1667 9.33333 13.1667 9.16667 13.4167 8.91667C13.5833 8.75 14 8.5 14.3333 8.25C14.5833 8.08333 14.75 7.83333 14.75 7.5C14.75 7.25 14.6667 7 14.5 6.83333C14.25 6.58333 13.9167 6.5 13.6667 6.5C13.5 6.5 13.4167 6.5 13.25 6.58333C13 6.66667 12.75 6.75 12.5833 6.66667C12.5833 6.41667 12.5833 5.83333 12.5833 5.33333C12.5833 3.91667 12.0833 1.66667 10 1.66667C7.91667 1.66667 7.41667 3.91667 7.41667 5.33333C7.41667 5.83333 7.41667 6.33333 7.41667 6.66667C7.25 6.75 7 6.66667 6.75 6.58333C6.58333 6.5 6.5 6.5 6.33333 6.5C6.08333 6.5 5.75 6.58333 5.5 6.83333C5.33333 7 5.25 7.25 5.25 7.5C5.25 7.83333 5.41667 8.08333 5.66667 8.25C6 8.5 6.41667 8.75 6.58333 8.91667C6.83333 9.16667 6.83333 9.33333 6.75 9.66667C6.66667 10 5.41667 13.5833 2.08333 14.1667C1.91667 14.1667 1.66667 14.3333 1.66667 14.5833C1.66667 14.9167 2 15.1667 2.16667 15.25C2.75 15.5 3.5 15.6667 4.08333 15.8333C4.25 15.9167 4.33333 16.0833 4.41667 16.3333C4.41667 16.5 4.5 16.6667 4.5 16.8333C4.5 17.1667 4.75 17.4167 5.16667 17.4167C5.41667 17.4167 5.75 17.3333 6.16667 17.25C6.75 17.0833 7.5 16.9167 8.41667 17.1667C9.08333 17.4167 9.58333 18.3333 10 18.3333C10.4167 18.3333 10.9167 17.4167 11.5833 17.1667C12.5 16.9167 13.25 17.0833 13.8333 17.25C14.25 17.3333 14.5833 17.4167 14.8333 17.4167C15.25 17.4167 15.5 17.1667 15.5 16.8333C15.5 16.6667 15.5833 16.5 15.5833 16.3333C15.6667 16.0833 15.75 15.9167 15.9167 15.8333C16.5 15.6667 17.25 15.5 17.8333 15.25C18 15.1667 18.3333 14.9167 18.3333 14.5833C18.3333 14.3333 18.0833 14.1667 17.9167 14.1667Z" fill="white"/>
</svg>
