<svg width="20" height="20" viewBox="0 0 20 20" fill="none" xmlns="http://www.w3.org/2000/svg">
<path d="M10 1.66667C5.41667 1.66667 1.66667 5.41667 1.66667 10C1.66667 14.5833 5.41667 18.3333 10 18.3333C14.5833 18.3333 18.3333 14.5833 18.3333 10C18.3333 5.41667 14.5833 1.66667 10 1.66667ZM14.25 7.08333L12.75 13.5C12.6667 13.9167 12.4167 14 12.0833 13.8333L10.0833 12.3333L9.16667 13.25C9.08333 13.3333 9 13.4167 8.83333 13.4167L9 11.3333L12.5 8.16667C12.6667 8.08333 12.5 7.91667 12.25 8L7.83333 10.8333L5.83333 10.1667C5.41667 10.0833 5.41667 9.75 5.91667 9.58333L13.6667 6.5C14 6.33333 14.3333 6.58333 14.25 7.08333Z" fill="white"/>
</svg>
