<svg width="20" height="20" viewBox="0 0 20 20" fill="none" xmlns="http://www.w3.org/2000/svg">
<path fill-rule="evenodd" clip-rule="evenodd" d="M10 1.66667C5.41667 1.66667 1.66667 5.41667 1.66667 10C1.66667 11.5833 2.08333 13.0833 2.83333 14.4167L1.66667 18.3333L5.66667 17.1667C6.91667 17.8333 8.41667 18.25 10 18.25C14.5833 18.25 18.3333 14.5 18.3333 9.91667C18.3333 5.41667 14.5833 1.66667 10 1.66667ZM14.5 12.5C14.3333 13 13.5 13.5 13 13.5833C12.5 13.6667 11.9167 13.75 10 13C7.75 12.0833 6.16667 9.83333 6 9.66667C5.91667 9.5 5.08333 8.41667 5.08333 7.25C5.08333 6.08333 5.66667 5.5 5.91667 5.25C6.16667 5 6.41667 4.91667 6.58333 4.91667H7.08333C7.25 4.91667 7.5 4.91667 7.66667 5.33333C7.91667 5.83333 8.41667 7 8.5 7.16667C8.58333 7.25 8.58333 7.41667 8.5 7.5C8.41667 7.66667 8.33333 7.75 8.25 7.91667C8.08333 8.08333 7.91667 8.25 7.83333 8.41667C7.66667 8.5 7.5 8.66667 7.66667 8.91667C7.83333 9.16667 8.41667 10 9.25 10.75C10.25 11.5833 11.0833 11.9167 11.3333 12C11.5833 12.0833 11.75 12.0833 11.9167 11.9167C12.0833 11.75 12.5833 11.1667 12.75 10.9167C12.9167 10.6667 13.0833 10.75 13.3333 10.8333C13.5833 10.9167 14.75 11.5 15 11.6667C15.25 11.8333 15.4167 11.9167 15.5 12C15.5833 12.1667 15.5833 12.5 15.4167 12.9167L14.5 12.5Z" fill="white"/>
</svg>
