<svg width="20" height="20" viewBox="0 0 20 20" fill="none" xmlns="http://www.w3.org/2000/svg">
<path d="M18.5833 5.83333C18.4167 5.16667 17.9167 4.66667 17.25 4.5C15.9167 4.16667 10 4.16667 10 4.16667C10 4.16667 4.08333 4.16667 2.75 4.5C2.08333 4.66667 1.58333 5.16667 1.41667 5.83333C1.08333 7.16667 1.08333 10 1.08333 10C1.08333 10 1.08333 12.8333 1.41667 14.1667C1.58333 14.8333 2.08333 15.3333 2.75 15.5C4.08333 15.8333 10 15.8333 10 15.8333C10 15.8333 15.9167 15.8333 17.25 15.5C17.9167 15.3333 18.4167 14.8333 18.5833 14.1667C18.9167 12.8333 18.9167 10 18.9167 10C18.9167 10 18.9167 7.16667 18.5833 5.83333ZM8.16667 12.5V7.5L12.9167 10L8.16667 12.5Z" fill="white"/>
</svg>
